<?xml version="1.0" encoding="UTF-8" standalone="no"?>
<!-- Created with Inkscape (http://www.inkscape.org/) -->
<svg id="svg2" xmlns:rdf="http://www.w3.org/1999/02/22-rdf-syntax-ns#" xmlns="http://www.w3.org/2000/svg" xml:space="preserve" height="1411.2" width="642.09" version="1.1" xmlns:cc="http://creativecommons.org/ns#" xmlns:xlink="http://www.w3.org/1999/xlink" xmlns:dc="http://purl.org/dc/elements/1.1/"><metadata id="metadata8"><rdf:RDF><cc:Work rdf:about=""><dc:format>image/svg+xml</dc:format><dc:type rdf:resource="http://purl.org/dc/dcmitype/StillImage"/><dc:title/></cc:Work></rdf:RDF></metadata><defs id="defs6"><clipPath id="clipPath24" clipPathUnits="userSpaceOnUse"><path id="path26" d="m1207.4,4242.8s-19.24-82.7-50.36-193.91c67.4-27.54,124.63-76.98,201.31-94.01,134.17-44.72-100.63-275.81-216.26-380.08-126.6-135.6-206.65-200.4-238.91-318.3-30.43-123.1-44.21-228.8-18.83-276.3,63.22-118.4,353.94-171.4,474.14-121.1,120.2,50.32,242.85,564.66,276.56,757.54,33.72,192.88,114.79,464.03,114.79,464.03l-542.3,162.12"/></clipPath><linearGradient id="linearGradient28" gradientUnits="userSpaceOnUse" gradientTransform="matrix(53.2974,48.8254,81.4875,-88.9511,40.5532,353.528)" x1="0.006135"><stop id="stop30" stop-color="#fcd2a4" offset="0"/><stop id="stop32" stop-color="#f0b085" offset="1"/></linearGradient><clipPath id="clipPath48" clipPathUnits="userSpaceOnUse"><path id="path50" d="m1391,1260c0,20,90,0,120-30,854-138.5,1194-525.64,1267.6-1230h-1297.7c-151.7,394.93-190.28,822.31-89.83,1260"/></clipPath><radialGradient id="radialGradient52" gradientUnits="userSpaceOnUse" cy="0" cx="0" gradientTransform="matrix(-112.477,-80.6091,80.6091,-112.477,286.594,-1.55859)" r="1"><stop id="stop54" stop-color="#524f4b" offset="0"/><stop id="stop56" stop-color="#231f20" offset="1"/></radialGradient><clipPath id="clipPath66" clipPathUnits="userSpaceOnUse"><path id="path68" d="m3984.3,1260c0,20-90,0-120-30-450-335.32-931.4-217.8-1159-1230h1189.2c151.7,394.93,190.28,822.31,89.83,1260"/></clipPath><radialGradient id="radialGradient70" gradientUnits="userSpaceOnUse" cy="0" cx="0" gradientTransform="matrix(104.022,-74.5494,-74.5494,-104.022,262.452,-1.55859)" r="1"><stop id="stop72" stop-color="#524f4b" offset="0"/><stop id="stop74" stop-color="#231f20" offset="1"/></radialGradient><clipPath id="clipPath84" clipPathUnits="userSpaceOnUse"><path id="path86" d="m2576.4,5821.2c-3.61-12.29-7.99-22.42-13.26-29.78-55.91-78.28-400.96-190.09-400.96-190.09s6.06-13.6,18.28-36.28c144.14-74.24,304.44-117.73,474.93-123.05-16.86,126.4-52.74,252.8-78.99,379.2"/></clipPath><linearGradient id="linearGradient88" gradientUnits="userSpaceOnUse" gradientTransform="matrix(-20.1262,-30.5616,-45.0607,29.6745,277.613,558.894)" x1="0.006135"><stop id="stop90" stop-color="#fcd2a4" offset="0"/><stop id="stop92" stop-color="#f0b085" offset="1"/></linearGradient><clipPath id="clipPath100" clipPathUnits="userSpaceOnUse"><path id="path102" d="m3144.6,5808.2c-22.93,45.85-69.49-239.47-131.38-332.64,181.75,0,359.12,43.7,510.27,133.84,4.57,10.91,6.87,17.1,6.87,17.1s-338.24,86.66-385.76,181.7"/></clipPath><linearGradient id="linearGradient104" gradientUnits="userSpaceOnUse" gradientTransform="matrix(26.0436,-33.6201,-42.7894,-33.1465,335.466,588.596)" x1="0.006135"><stop id="stop106" stop-color="#fcd2a4" offset="0"/><stop id="stop108" stop-color="#f0b085" offset="1"/></linearGradient><clipPath id="clipPath130" clipPathUnits="userSpaceOnUse"><path id="path132" d="m4097.8,3545.2c-55.91,33.53-67.09,398.52,11.18,465.61,92.05,84.39,241.98,79.31,359.55,132.78-7.79,162.15-17.08,302.26-26.91,375.97-22.36,167.72-229.21,1025.9-441.66,916.87-212.44-109.02-125.64-873.63-125.64-873.63s61.35-463.24,80.92-613.83c19.56-150.6,16.77-402.18,16.77-410.57s287.92-287.92,363.39-349.42c75.47-61.49,121.02-92.44,121.02-92.44s9.3,19.16,18.08,78.32c-24.49,128.88-175.86,236.44-376.7,370.34"/></clipPath><linearGradient id="linearGradient134" gradientUnits="userSpaceOnUse" gradientTransform="matrix(-69.2376,3.7282,13.2928,246.866,451.724,307.322)" x1="0.006135"><stop id="stop136" stop-color="#fcd2a4" offset="0"/><stop id="stop138" stop-color="#f0b085" offset="1"/></linearGradient><clipPath id="clipPath150" clipPathUnits="userSpaceOnUse"><path id="path152" d="m2163.4,4659.3c-57.31,47.77-155.42,46.54-245.54,38.2,4.56-50.32,9.75-100.87,14.41-147.54,17.65-176.48,35.3-369.73,168.92-361.35,133.62,8.39,317.67,5.87,345.4,10.92,27.73,5.03,68.07,22.69,85.72,105.88,8.65,40.79,9.42,166.98,7.66,291.58-129.77-30.63-264.13-26.45-376.57,62.31"/></clipPath><linearGradient id="linearGradient154" gradientUnits="userSpaceOnUse" gradientTransform="matrix(7.82675,-50.6871,-66.1462,-10.2139,251.849,486.751)"><stop id="stop156" stop-color="#524f4b" offset="0"/><stop id="stop158" stop-color="#231f20" offset="1"/></linearGradient><clipPath id="clipPath168" clipPathUnits="userSpaceOnUse"><path id="path170" d="m4299.1,2970.9c-503.16-111.82-872.14,279.53-1330.6,402.53-91.09,27.33-182.19,47.1-273.28,59.58-15.79-34.54-22.21-57.6-11.85-58.68,44.73-4.7,430.48-149.06,511.55-190.99,81.06-41.92,645.53-341.79,862.5-363.39,257.54-25.63,408.56,150.96,429.67,327.05-35.68-87.43-96.91-155.86-188.02-176.1"/></clipPath><linearGradient id="linearGradient172" gradientUnits="userSpaceOnUse" gradientTransform="matrix(-15.6539,-44.7253,-176.266,61.6929,451.477,304.974)" x1="0.006135"><stop id="stop174" stop-color="#fcd2a4" offset="0"/><stop id="stop176" stop-color="#f0b085" offset="1"/></linearGradient><clipPath id="clipPath194" clipPathUnits="userSpaceOnUse"><path id="path196" d="m2291,8577.2c-188.44,56.32-312.35,77.07-503.26,29.06-122.12-29.69-236.73-90.72-358.26-136.21-39.09-14.61-80.19-35.99-122.28-54.16l122.73,41.54c159.47,43.73,334.87,84.83,502.04,90.91,141.95,5.15,222.82-48.76,365.68-68.82,22.36-5.49,188.51-58.66,190.28-20.69,1.56,44.28-168.22,109.93-196.93,118.37"/></clipPath><linearGradient id="linearGradient198" gradientUnits="userSpaceOnUse" gradientTransform="matrix(117.773,8.56081,2.24438,-30.8765,129.206,862.443)"><stop id="stop200" stop-color="#40200d" offset="0"/><stop id="stop202" stop-color="#7f4a42" offset="1"/></linearGradient><clipPath id="clipPath210" clipPathUnits="userSpaceOnUse"><path id="path212" d="m4198.9,7446c14.63-201.26-136.69-376.27-337.94-390.91-201.26-14.62-376.28,136.69-390.9,337.94-14.63,201.27,136.68,376.29,337.93,390.92,201.26,14.62,376.28-136.69,390.91-337.95"/></clipPath><radialGradient id="radialGradient214" gradientUnits="userSpaceOnUse" cy="0" cx="0" gradientTransform="matrix(36.4424,2.64896,2.64896,-36.4424,383.451,741.949)" r="1"><stop id="stop216" stop-color="#f79896" offset="0"/><stop id="stop218" stop-color="#fcd2a4" offset="1"/></radialGradient><clipPath id="clipPath226" clipPathUnits="userSpaceOnUse"><path id="path228" d="m2098,7535c14.62-201.25-136.67-376.27-337.93-390.9s-376.28,136.68-390.91,337.94c-14.61,201.25,136.68,376.27,337.95,390.9,201.25,14.62,376.26-136.68,390.89-337.94"/></clipPath><radialGradient id="radialGradient230" gradientUnits="userSpaceOnUse" cy="0" cx="0" gradientTransform="matrix(36.4416,2.64891,2.64891,-36.4416,173.359,750.848)" r="1"><stop id="stop232" stop-color="#f79896" offset="0"/><stop id="stop234" stop-color="#fcd2a4" offset="1"/></radialGradient><clipPath id="clipPath242" clipPathUnits="userSpaceOnUse"><path id="path244" d="m3342.7,8537c172.77,48.74,262.32,52.04,435.87,5.49,111.03-28.83,213.88-188.11,213.88-188.11-128.55,126.8-169.99,143.27-322.51,151.2-129.42,6.75-204.08-41.34-334.77-57.64-20.46-4.69-172.86-50.84-173.94-16.15-0.77,40.43,155.14,97.92,181.47,105.21"/></clipPath><linearGradient id="linearGradient246" gradientUnits="userSpaceOnUse" gradientTransform="matrix(82.1267,5.96971,2.21359,-30.4528,315.049,857.924)"><stop id="stop248" stop-color="#7f4a42" offset="0"/><stop id="stop250" stop-color="#40200d" offset="1"/></linearGradient><clipPath id="clipPath290" clipPathUnits="userSpaceOnUse"><path id="path292" d="m4525.1,9442.3s-304.28,699.86-1172.5,962.86c-129.58,39.3-836.56,108.1-1162.5,23.7-878.2-227-1362.4-1037.4-1362.4-1037.4-319.99-636.5-358.56-1444.7-156.53-2405.9,253.15-1204.3,1141.3-1014.6,1141.3-1014.6s-89.38,35.55-222.64,110.25c-133.26,74.73-392.91,408-392.91,408l266.8-93.9c266.79-93.91,322.13,18.81,322.13,18.81s-201.98-48.44-467.69,406.68c-165.5,283.51-174.02,796.6-157,1143.2,61.96-139.55,129.05-247.05,182.86-253.63,56.27,391.68,190.14,932.86,392.76,1272.7,107.02,181.98,204.61,356.59,302.28,531.22,36.23,63.89,83.72,126.43,117.61,193.2-67.87-247.83,8.69-521.55,68.06-767.04,91.85-358.84,678.94-754.83,678.94-754.83s-243.9,405-300.96,632.43c-32.79,148.12-9.67,450.54-9.67,450.54s82.93-510.4,270.4-711.34c147.7-179.13,295.44-358.26,504.52-451.62-95.56,189.72-144.02,695.92-144.02,695.92s1099.7-847.1,1115.5-815.09c2.94-347.03-85.65-945.45-262.6-1222-284.01-443.92-483.86-387.29-483.86-387.29s50.67-114.84,321.09-31.91c270.45,82.96,270.45,82.96,270.45,82.96s-273.04-322.45-409.27-391.67c-136.17-69.22-226.92-101.08-226.92-101.08s898.26-165.37,1200.3,1027.7c241.04,952.15,70.29,1830-223.52,2479"/></clipPath><linearGradient id="linearGradient294" gradientUnits="userSpaceOnUse" gradientTransform="matrix(-33.4573,460.28,453.436,32.9598,61.2178,570.383)"><stop id="stop296" stop-color="#40200d" offset="0"/><stop id="stop298" stop-color="#58332d" offset="1"/></linearGradient><clipPath id="clipPath306" clipPathUnits="userSpaceOnUse"><path id="path308" d="m4110.8,8600.6c-58.2,135.48-216.69,172.31-315.7,277.93-156.73,160.56-256.23,346.74-393.13,530.21-41.31,50.73-77.25,101.84-113.59,158.29-11.86,15.27-29.44,35.48-41.29,50.74-66.92,112.59-109.99,233.59-143.04,356.26-5.28,7.31-10.54,14.62-15.75,21.94-113.48-230.13-84.21-489.9-26.46-716.52-227.48,235.14-323.04,551.79-445.56,847.39-44.58-165.41-5.01-341.02-1.52-512.25-184.6,158.5-194.25,419.35-131.82,647.35-9.16,0.2-18.38,0.3-27.53,0.3-194.68-436.22-158.99-958.41,46.44-1405.9,2.29,185.6,45.63,377.38,51.94,558.32,244.16-298.18,366.96-691.33,639.59-956.43-63.59,178.57-152.69,348.03-91.67,547.98,308.55-238.66,830.46-516.96,1148-828.9-5.85,50.77-15,101.52-27.82,152.01-23.41,100.38-77.34,177.05-111.05,271.31"/></clipPath><linearGradient id="linearGradient310" gradientUnits="userSpaceOnUse" gradientTransform="matrix(181.154,13.1679,16.3089,-224.365,227.654,1026.93)"><stop id="stop312" stop-color="#7f4a42" offset="0"/><stop id="stop314" stop-color="#58332d" offset="1"/></linearGradient><clipPath id="clipPath322" clipPathUnits="userSpaceOnUse"><path id="path324" d="m1393.6,8604.7c112.94,425.41,264.83,870.44,583.87,1185.3-205.53-84.72-362.69-272.92-471.82-467.01-21.77,286.5,80.12,547.3,252.27,758.25-378.63-209.64-500.95-513.68-500.95-513.68-116.25-178.93-213.1-490.78-253.15-749.17,103.12,204.7,231.01,393.9,364.97,582.3-104.43-255.63-66.03-540.92,24.81-795.99"/></clipPath><linearGradient id="linearGradient326" gradientUnits="userSpaceOnUse" gradientTransform="matrix(103.879,7.55083,10.7749,-148.233,91.501,1004)"><stop id="stop328" stop-color="#58332d" offset="0"/><stop id="stop330" stop-color="#7f4a42" offset="1"/></linearGradient><clipPath id="clipPath344" clipPathUnits="userSpaceOnUse"><path id="path346" d="m1175.6,6791.6c-120.37,264.94-141.42,549.45-191.42,836.78-12.203-125.42-15.676-261.45-37.496-385.94-114.2,127.97-86.36,514.87-81.004,670.18-147.12-530.56-39.602-1009.1,164.77-1311.5-32.265,168.75-82.012,358.62-84.433,534.2,46.66-121.41,121.29-255.28,229.58-343.75"/></clipPath><linearGradient id="linearGradient348" gradientUnits="userSpaceOnUse" gradientTransform="matrix(-9.56944,131.649,45.184,3.28438,75.6675,658.129)"><stop id="stop350" stop-color="#58332d" offset="0"/><stop id="stop352" stop-color="#7f4a42" offset="1"/></linearGradient><clipPath id="clipPath360" clipPathUnits="userSpaceOnUse"><path id="path362" d="m4191.8,6730.2c131.06,259.81,163.67,543.23,225.36,828.29,7.06-125.83,4.96-261.87,21.75-387.16,119.29,123.21,107.24,510.93,108.2,666.34,125.38-536.12-1.55-1009.9-218.06-1303.7,39.13,167.26,96.56,354.97,106.16,530.29-51.59-119.4-131.61-250.13-243.41-334.1"/></clipPath><linearGradient id="linearGradient364" gradientUnits="userSpaceOnUse" gradientTransform="matrix(-9.31172,128.104,55.9377,4.06606,418.676,652.362)"><stop id="stop366" stop-color="#58332d" offset="0"/><stop id="stop368" stop-color="#7f4a42" offset="1"/></linearGradient><clipPath id="clipPath380" clipPathUnits="userSpaceOnUse"><path id="path382" d="m1749.8,3964.8s95.89,40.45,175.5,57.22c79.62,16.77,150.18,25.23,161.36-33.47s-93.67-139.84-121.63-159.41c-27.95-19.56-157.11-67.09-157.11-67.09s-27.38,68.27-30.17,120.79c-2.8,52.52-27.95,81.96-27.95,81.96"/></clipPath><linearGradient id="linearGradient384" gradientUnits="userSpaceOnUse" gradientTransform="matrix(33.7695,0,0,-32.5195,174.975,406.72)" x1="0.006135"><stop id="stop386" stop-color="#fcd2a4" offset="0"/><stop id="stop388" stop-color="#f0b085" offset="1"/></linearGradient><clipPath id="clipPath410" clipPathUnits="userSpaceOnUse"><path id="path412" d="m1737.7,4169.9s280.4,10.98,330.71,0c50.32-10.96,78.27-69.67,78.27-97.62s-47.12-27.06-93.96-36.44c-53.21-10.65-289-83.76-289-83.76s-54.56,39.13-54.56,111.36c0,54.35,28.54,106.46,28.54,106.46"/></clipPath><linearGradient id="linearGradient414" gradientUnits="userSpaceOnUse" gradientTransform="matrix(43.7524,0,0,-26.8799,170.916,420.089)" x1="0.006135"><stop id="stop416" stop-color="#fcd2a4" offset="0"/><stop id="stop418" stop-color="#f0b085" offset="1"/></linearGradient><clipPath id="clipPath430" clipPathUnits="userSpaceOnUse"><path id="path432" d="m1987.5,3860.3c-139.98-41.04-212.19-56.81-230.81-54.95,50.76-58.7-40.53-320.06-163.52-375.97-6.41-3.84-13.15-6.88-20.1-9.36,42.58-12.42,89.94-3.62,136.05,40.11,82.52,78.27,121.65,184.49,127.24,240.4s0,72.67,0,72.67,151.84,62.46,151.14,87.1"/></clipPath><linearGradient id="linearGradient434" gradientUnits="userSpaceOnUse" gradientTransform="matrix(14.9083,-13.7907,-43.7737,-47.3209,187.585,399.085)" x1="0.006135"><stop id="stop436" stop-color="#fcd2a4" offset="0"/><stop id="stop438" stop-color="#f0b085" offset="1"/></linearGradient><clipPath id="clipPath446" clipPathUnits="userSpaceOnUse"><path id="path448" d="m2686.2,4404.9s55.91-46.38,92.24-101.46c36.35-55.08,47.52-186.46,72.69-253.55,25.15-67.09,125.78-405.32,125.78-405.32s-11.18-103.43-55.91-164.92c-44.72-61.5-204.05-123-282.32-100.64-78.27,22.37-156.54,229.22-184.5,279.53-27.95,50.32-64.29,164.94-64.29,164.94s123.86,418.69,154.21,464.02c30.33,45.32,142.1,117.4,142.1,117.4"/></clipPath><linearGradient id="linearGradient450" gradientUnits="userSpaceOnUse" gradientTransform="matrix(58.7021,0,0,-108.825,238.987,442.493)" x1="0.006135"><stop id="stop452" stop-color="#fcd2a4" offset="0"/><stop id="stop454" stop-color="#f0b085" offset="1"/></linearGradient><clipPath id="clipPath488" clipPathUnits="userSpaceOnUse"><path id="path490" d="m1672.1,3497c-2.97-6.21-17.32-42.18-17.32-48.39-44.71-324.25-218.09-768.38-609.43-578.3-33.54,11.19-78.269,22.37-100.63,55.91-26.536,33.16-48.028,69.33-65.008,107.23-0.907-54.41,13.949-106.35,51.035-151.95,170.52-209.66,394.14-190.09,556.26-16.77,162.13,173.31,150.95,382.96,178.9,471.01,27.96,88.05,43.28,124.39,43.28,124.39l-37.09,36.87"/></clipPath><linearGradient id="linearGradient492" gradientUnits="userSpaceOnUse" gradientTransform="matrix(82.9517,0,0,-86.5156,87.9639,351.698)" x1="0.006135"><stop id="stop494" stop-color="#fcd2a4" offset="0"/><stop id="stop496" stop-color="#f0b085" offset="1"/></linearGradient><linearGradient id="linearGradient7442" xlink:href="#linearGradient28" gradientUnits="userSpaceOnUse" gradientTransform="matrix(53.2974,48.8254,81.4875,-88.9511,40.5532,353.528)" x1="0.006135"/><radialGradient id="radialGradient7444" xlink:href="#radialGradient52" gradientUnits="userSpaceOnUse" cy="0" cx="0" gradientTransform="matrix(-112.477,-80.6091,80.6091,-112.477,286.594,-1.55859)" r="1"/><radialGradient id="radialGradient7446" xlink:href="#radialGradient70" gradientUnits="userSpaceOnUse" cy="0" cx="0" gradientTransform="matrix(104.022,-74.5494,-74.5494,-104.022,262.452,-1.55859)" r="1"/><linearGradient id="linearGradient7448" xlink:href="#linearGradient88" gradientUnits="userSpaceOnUse" gradientTransform="matrix(-20.1262,-30.5616,-45.0607,29.6745,277.613,558.894)" x1="0.006135"/><linearGradient id="linearGradient7450" xlink:href="#linearGradient104" gradientUnits="userSpaceOnUse" gradientTransform="matrix(26.0436,-33.6201,-42.7894,-33.1465,335.466,588.596)" x1="0.006135"/><linearGradient id="linearGradient7452" xlink:href="#linearGradient134" gradientUnits="userSpaceOnUse" gradientTransform="matrix(-69.2376,3.7282,13.2928,246.866,451.724,307.322)" x1="0.006135"/><linearGradient id="linearGradient7454" xlink:href="#linearGradient154" gradientUnits="userSpaceOnUse" gradientTransform="matrix(7.82675,-50.6871,-66.1462,-10.2139,251.849,486.751)"/><linearGradient id="linearGradient7456" xlink:href="#linearGradient172" gradientUnits="userSpaceOnUse" gradientTransform="matrix(-15.6539,-44.7253,-176.266,61.6929,451.477,304.974)" x1="0.006135"/><linearGradient id="linearGradient7458" xlink:href="#linearGradient198" gradientUnits="userSpaceOnUse" gradientTransform="matrix(117.773,8.56081,2.24438,-30.8765,129.206,862.443)"/><radialGradient id="radialGradient7460" xlink:href="#radialGradient214" gradientUnits="userSpaceOnUse" cy="0" cx="0" gradientTransform="matrix(36.4424,2.64896,2.64896,-36.4424,383.451,741.949)" r="1"/><radialGradient id="radialGradient7462" xlink:href="#radialGradient230" gradientUnits="userSpaceOnUse" cy="0" cx="0" gradientTransform="matrix(36.4416,2.64891,2.64891,-36.4416,173.359,750.848)" r="1"/><linearGradient id="linearGradient7464" xlink:href="#linearGradient246" gradientUnits="userSpaceOnUse" gradientTransform="matrix(82.1267,5.96971,2.21359,-30.4528,315.049,857.924)"/><linearGradient id="linearGradient7466" xlink:href="#linearGradient294" gradientUnits="userSpaceOnUse" gradientTransform="matrix(-33.4573,460.28,453.436,32.9598,61.2178,570.383)"/><linearGradient id="linearGradient7468" xlink:href="#linearGradient310" gradientUnits="userSpaceOnUse" gradientTransform="matrix(181.154,13.1679,16.3089,-224.365,227.654,1026.93)"/><linearGradient id="linearGradient7470" xlink:href="#linearGradient326" gradientUnits="userSpaceOnUse" gradientTransform="matrix(103.879,7.55083,10.7749,-148.233,91.501,1004)"/><linearGradient id="linearGradient7472" xlink:href="#linearGradient348" gradientUnits="userSpaceOnUse" gradientTransform="matrix(-9.56944,131.649,45.184,3.28438,75.6675,658.129)"/><linearGradient id="linearGradient7474" xlink:href="#linearGradient364" gradientUnits="userSpaceOnUse" gradientTransform="matrix(-9.31172,128.104,55.9377,4.06606,418.676,652.362)"/><linearGradient id="linearGradient7476" xlink:href="#linearGradient384" gradientUnits="userSpaceOnUse" gradientTransform="matrix(33.7695,0,0,-32.5195,174.975,406.72)" x1="0.006135"/><linearGradient id="linearGradient7478" xlink:href="#linearGradient414" gradientUnits="userSpaceOnUse" gradientTransform="matrix(43.7524,0,0,-26.8799,170.916,420.089)" x1="0.006135"/><linearGradient id="linearGradient7480" xlink:href="#linearGradient434" gradientUnits="userSpaceOnUse" gradientTransform="matrix(14.9083,-13.7907,-43.7737,-47.3209,187.585,399.085)" x1="0.006135"/><linearGradient id="linearGradient7482" xlink:href="#linearGradient450" gradientUnits="userSpaceOnUse" gradientTransform="matrix(58.7021,0,0,-108.825,238.987,442.493)" x1="0.006135"/><linearGradient id="linearGradient7484" xlink:href="#linearGradient492" gradientUnits="userSpaceOnUse" gradientTransform="matrix(82.9517,0,0,-86.5156,87.9639,351.698)" x1="0.006135"/></defs><g id="g10" transform="matrix(1.25,0,0,-1.25,-26.886105,1411.1978)"><g id="g12" transform="scale(0.1,0.1)"><path id="path18" fill-rule="nonzero" fill="#fcd2a4" d="m1207.4,4242.8s-55.91-240.4-131.38-452.84c-75.47-212.45-255.04-691.4-191.81-809.78,63.222-118.39,353.94-171.38,474.14-121.07,120.2,50.32,242.85,564.66,276.56,757.54,33.72,192.88,114.79,464.03,114.79,464.03l-542.3,162.12"/><g id="g20"><g id="g22" clip-path="url(#clipPath24)"><path id="path34" fill-rule="nonzero" fill="url(#linearGradient7442)" d="m1207.4,4242.8s-19.24-82.7-50.36-193.91c67.4-27.54,124.63-76.98,201.31-94.01,134.17-44.72-100.63-275.81-216.26-380.08-126.6-135.6-206.65-200.4-238.91-318.3-30.43-123.1-44.21-228.8-18.83-276.3,63.22-118.4,353.94-171.4,474.14-121.1,120.2,50.32,242.85,564.66,276.56,757.54,33.72,192.88,114.79,464.03,114.79,464.03l-542.3,162.12"/></g></g><path id="path36" fill-rule="nonzero" fill="#FFF" d="m1682.7,5445.9s-167.77-48.67-251.61-188.43c-83.83-139.77-324.23-1055.4-324.23-1055.4s68.49-42.86,261.37-84.34c192.88-41.47,292.99-54.68,292.99-54.68s78.26-23.07,115.27,128.53c37.02,151.6,26.71,713.7,0,942.92-26.7,229.22-93.79,311.43-93.79,311.43"/><path id="path38" fill-rule="nonzero" fill="#f2f2f2" d="m1274.3,4310c160-30,320,0,460,70-100-240-350-170-540-110,126.18-81.11,260.52-154,402.94-196.91,42.33-7.18,63.9-10.03,63.9-10.03s78.26-23.07,115.27,128.53c14.86,60.85,22.09,187.85,23.69,332.9-117.66-139.22-349.79-155.82-525.8-214.49"/><path id="path40" fill-rule="nonzero" fill="#231f20" d="m2364.7,854.28s113.64-190.08,311.19-212.44c197.56-22.363,270.23,50.312,326.14,212.44s229.22,793.87,229.22,793.87l-1241.4-46.26,374.85-747.61"/><path id="path42" fill-rule="nonzero" fill="#231f20" d="m2778.6,0c11.76,221.12-19.8,416.33-102.66,552.38-98.75,162.13-518.05,911.28-590.72,1011.9-72.69,100.63-721.2,0-721.2,0s-95.04-184.49-111.81-257.17c-16.1-69.5-123.6-834.6,20.9-1307.1h1505.5"/><g id="g44"><g id="g46" clip-path="url(#clipPath48)"><path id="path58" fill-rule="nonzero" fill="url(#radialGradient7444)" d="m1391,1260c0,20,90,0,120-30,854-138.5,1194-525.64,1267.6-1230h-1297.7c-151.7,394.93-190.28,822.31-89.83,1260"/></g></g><path id="path60" fill-rule="nonzero" fill="#231f20" d="m4008,0c8,31.465,15.63,62.812,22.77,93.945,139.77,609.39,190.08,788.28,83.86,1146.1-106.22,357.8-195.68,486.39-195.68,486.39l-782.68-55.9s-229.44-737.97-355.12-1157.3c-41.5-137.97-79.5-321.41-112.7-513.2h1339.5"/><g id="g62"><g id="g64" clip-path="url(#clipPath66)"><path id="path76" fill-rule="nonzero" fill="url(#radialGradient7446)" d="m3984.3,1260c0,20-90,0-120-30-450-335.32-931.4-217.8-1159-1230h1189.2c151.7,394.93,190.28,822.31,89.83,1260"/></g></g><path id="path78" fill-rule="nonzero" fill="#fcd2a4" d="m2575.3,6258.2s43.76-388.55-12.15-466.81c-55.91-78.28-400.96-190.09-400.96-190.09s216.34-486.39,687.42-514.34c471.08-27.96,680.73,539.49,680.73,539.49s-338.24,86.66-385.76,181.7-22.36,505.96-22.36,505.96l-546.92-55.91"/><g id="g80"><g id="g82" clip-path="url(#clipPath84)"><path id="path94" fill-rule="nonzero" fill="url(#linearGradient7448)" d="m2576.4,5821.2c-3.61-12.29-7.99-22.42-13.26-29.78-55.91-78.28-400.96-190.09-400.96-190.09s6.06-13.6,18.28-36.28c144.14-74.24,304.44-117.73,474.93-123.05-16.86,126.4-52.74,252.8-78.99,379.2"/></g></g><g id="g96"><g id="g98" clip-path="url(#clipPath100)"><path id="path110" fill-rule="nonzero" fill="url(#linearGradient7450)" d="m3144.6,5808.2c-22.93,45.85-69.49-239.47-131.38-332.64,181.75,0,359.12,43.7,510.27,133.84,4.57,10.91,6.87,17.1,6.87,17.1s-338.24,86.66-385.76,181.7"/></g></g><path id="path112" fill-rule="nonzero" fill="#f0b085" d="m3116,6139.6c1.45,96.19,6.24,174.54,6.24,174.54l-546.92-55.91s7.46-66.39,12.29-149.77c141.43-179.87,334.35-44.28,528.39,31.14"/><path id="path114" fill-rule="nonzero" fill="#f0b085" d="m3009.5,6120.3s-19.98-614.54-106.89-674.39-182.42-18.85-182.42-18.85,89.46-14.9,144.66,44.73,66.62,167.72,90.72,346.62c24.12,178.9,53.93,301.89,53.93,301.89"/><path id="path116" fill-rule="nonzero" fill="#FFF" d="m2222.8,5628.4-540.13-182.42s53.9-587.32,26.5-803.19c-27.41-215.87-92.77-703.86,0-928.81s149.52-593.93,149.09-754.19c-0.42-160.27-51.36-320.52-81.8-383.89-30.43-63.37-97.52-119.26-97.52-190.08,0-70.83-63.36-137.91-85.72-186.37-22.37-48.44-82-81.97-85.73-152.8-3.73-70.82-3.72-85.71-22.36-111.81s-82-37.27-108.09-111.81c-26.08-74.54-22.36-104.37-33.55-141.63-11.18-37.27-49.09-234.82-49.09-234.82s142.27-152.81,1361-186.35c1218.8-33.55,1401.4,245.99,1401.4,245.99s7.46,74.54-29.81,164c-37.28,89.44-48.45,119.25-67.09,186.34s-37.27,119.27-55.9,175.18c-18.65,55.91-3.74,85.71-26.1,149.08-22.36,63.36-108.08,126.73-122.99,175.18-14.91,48.44,7.45,70.82-14.91,130.45s-78.27,74.54-111.82,171.44c-33.54,96.91-79.59,275.81-58.43,354.08,21.17,78.27,91.98,730.51,200.07,965.32,108.08,234.8,190.08,363.47,190.08,363.47l3.72,1196.3-494.54,106.77s-253.24-461.66-619.46-461.66c-316.89,0-626.85,446.21-626.85,446.21"/><path id="path118" fill-rule="nonzero" fill="#f2f2f2" d="m1554.3,1810c380,120,790,60,1190,10-240,160-510,60-780,120-110,20-240,60-280,160-60,150,140,240,290,210,220-30,420-130,640-80-290,50-600,50-810,250-24.71,20.59-37.41,44.18-42.4,69.92-33.25-53.18-83.01-103.12-83.01-164.14,0-70.83-63.36-137.91-85.72-186.37-22.37-48.44-82-81.97-85.73-152.8-3.73-70.82-3.72-85.71-22.36-111.81s-82-37.27-108.09-111.81c-26.08-74.54-22.36-104.37-33.55-141.63-1.53-5.12-3.58-13.33-5.96-23.57,60.77,70.22,134.6,124.81,216.82,152.21"/><path id="path120" fill-rule="nonzero" fill="#f2f2f2" d="m3959.9,1856.5c-18.64,67.09-37.27,119.27-55.9,175.18-18.65,55.91-3.74,85.71-26.1,149.08-22.36,63.36-108.08,126.73-122.99,175.18-14.91,48.44,7.45,70.82-14.91,130.45s-78.27,74.54-111.82,171.44c-19.62,56.69-43.51,141.43-55.73,217.69-8.67,54.09-11.49,103.91-2.7,136.39,21.17,78.27,91.98,730.51,200.07,965.32,108.08,234.8,190.08,363.47,190.08,363.47l3.72,1196.3c-13.41-31.71-114.62-200.6-123.15-234.74-70-300-96.15-422.3-106.15-712.3-10-360-462.54-641.99-955.98-691.82-275.19-27.8-564.02,1.82-814.02,141.82-340,180-180,620-210,940-5.85,105.28-25.5,207.13-58.72,305.57,13.95-190.01,31.81-498.92,13.54-642.82-27.41-215.87-92.77-703.86,0-928.81,68.46-166.03,117.29-410.46,138-591.58,30.41,140.46,46.64,285.41,57.18,427.64,240-10,490-10,730-20,50,0,100-110,140-180,90-150,220-260,350-370,55.84-45.37,118.99-65.14,184.77-75.52,55.19-173.37,188.55-302.25,335.23-424.48,30-30,10-60,0-80-200-210-520-170-780-260,210-30,410-10,620,30,110,20,210,120,300,70,40-20,80-130,40-170-370-320-870-370-1330-480,500-40,970,90,1440,250,25.42-44.98,51.98-89.96,78.36-135.23-26.23,63.94-36.78,94.17-52.78,151.75"/><path id="path122" fill-rule="nonzero" fill="#f2f2f2" d="m2180.5,5565s226.08-445.06,668.29-451.72,668.88,451.72,668.88,451.72-139.1-488.51-668.03-478.06c-514.37,10.17-669.14,478.06-669.14,478.06"/><path id="path124" fill-rule="nonzero" fill="#fcd2a4" d="m3874.3,4562.8s61.35-463.24,80.92-613.83c19.56-150.6,16.77-402.18,16.77-410.57s287.92-287.92,363.39-349.42c75.47-61.49,121.02-92.44,121.02-92.44s38.32,78.47,32.72,411.11c-5.59,332.64-25.16,844.19-47.52,1011.9-22.36,167.72-229.21,1025.9-441.66,916.87-212.44-109.02-125.64-873.63-125.64-873.63"/><g id="g126"><g id="g128" clip-path="url(#clipPath130)"><path id="path140" fill-rule="nonzero" fill="url(#linearGradient7452)" d="m4097.8,3545.2c-55.91,33.53-67.09,398.52,11.18,465.61,92.05,84.39,241.98,79.31,359.55,132.78-7.79,162.15-17.08,302.26-26.91,375.97-22.36,167.72-229.21,1025.9-441.66,916.87-212.44-109.02-125.64-873.63-125.64-873.63s61.35-463.24,80.92-613.83c19.56-150.6,16.77-402.18,16.77-410.57s287.92-287.92,363.39-349.42c75.47-61.49,121.02-92.44,121.02-92.44s9.3,19.16,18.08,78.32c-24.49,128.88-175.86,236.44-376.7,370.34"/></g></g><path id="path142" fill-rule="nonzero" fill="#231f20" d="m2487.7,5123.3c-90.1,58.83-228.08,62.83-305.17,56.73-77.08-6.11-263.27-8.58-295.83-79.09-33.54-72.68-5.59-329.85,13.98-525.52,19.57-195.68,39.13-409.95,187.29-400.65,148.15,9.3,352.21,6.51,382.96,12.09,30.74,5.6,75.47,25.16,95.04,117.41,19.57,92.24,2.79,578.63,0,640.13-1.26,27.79-3.99,130.39-78.27,178.9"/><path id="path144" fill-rule="nonzero" fill="#524f4b" d="m2461.8,5044.1c-81.27,53.06-205.72,56.66-275.24,51.16s-237.45-7.73-266.81-71.32c-30.25-65.55-5.04-297.5,12.6-473.99,17.65-176.48,35.3-369.73,168.92-361.35,133.62,8.39,317.67,5.87,345.4,10.92,27.73,5.03,68.07,22.69,85.72,105.88,17.64,83.2,2.52,521.88,0,577.34-1.15,25.06-3.61,117.62-70.59,161.36"/><g id="g146"><g id="g148" clip-path="url(#clipPath150)"><path id="path160" fill-rule="nonzero" fill="url(#linearGradient7454)" d="m2163.4,4659.3c-57.31,47.77-155.42,46.54-245.54,38.2,4.56-50.32,9.75-100.87,14.41-147.54,17.65-176.48,35.3-369.73,168.92-361.35,133.62,8.39,317.67,5.87,345.4,10.92,27.73,5.03,68.07,22.69,85.72,105.88,8.65,40.79,9.42,166.98,7.66,291.58-129.77-30.63-264.13-26.45-376.57,62.31"/></g></g><path id="path162" fill-rule="nonzero" fill="#fcd2a4" d="m2904.2,3790s226.43-128.58,522.73-162.13c296.3-33.54,416.5-55.9,545.09-89.45,128.58-33.54,517.73-271.43,517.69-343.83-0.1-190.1-151.5-402.52-432.29-374.57-216.97,21.6-781.44,321.47-862.5,363.39-81.07,41.93-466.82,186.29-511.55,190.99-44.72,4.68,220.83,415.6,220.83,415.6"/><g id="g164"><g id="g166" clip-path="url(#clipPath168)"><path id="path178" fill-rule="nonzero" fill="url(#linearGradient7456)" d="m4299.1,2970.9c-503.16-111.82-872.14,279.53-1330.6,402.53-91.09,27.33-182.19,47.1-273.28,59.58-15.79-34.54-22.21-57.6-11.85-58.68,44.73-4.7,430.48-149.06,511.55-190.99,81.06-41.92,645.53-341.79,862.5-363.39,257.54-25.63,408.56,150.96,429.67,327.05-35.68-87.43-96.91-155.86-188.02-176.1"/></g></g><path id="path180" fill-rule="nonzero" fill="#231f20" d="m2942.9,3227.3c-30.28,0-34.83,71.98-34.83,71.98,7.33-2.74,36.71,4.33,53.92,11.23,6.36,2.55,40.64,22.14,92.09,158.12,35.09,92.74,19.84,223.75,9,243.83-10.68,12.75-27.26,16.71-31.86,18.21,0,0,64.64,53.72,91.53,20.04,32.35-40.52,48.29-199.01,6.15-310.39-45.36-119.89-88.93-184.74-137.13-204.06-16.66-6.68-33.56-8.96-48.87-8.96"/><path id="path182" fill-rule="nonzero" fill="#58332d" d="M4698.5,8577.9c-22.9-1122-951-2013-2073-1990.2-1122,22.9-2013,951-1990.2,2073,22.863,1122,950.97,2013,2073,1990.2,1122-22.9,2013-950.98,1990.1-2073"/><path id="path184" fill-rule="nonzero" fill="#2f1d1a" d="m4609.2,9218.1c0.89-37.91,1.64-75.83,2.31-113.72-1.85-48.5-14.78-92.41-16.63-140.9-4.86-80.94-26.15-157.71-41.7-239.43-63.85-230.3-166.66-441.93-268.71-664.26-217.4-483.24-737.11-725.17-1255.6-687.64-48.5,1.85-102.33,3.31-151.21,10.51-331.06,45.78-634.64,82.81-939.46,211.11-44.31,18.27-88.63,36.55-133.32,60.16-268.58,147.03-470.02,331.19-698.94,524.09-50.81,33.92-91.73,79.29-132.64,124.69-227.09,250.41-263.06,553.73-264.73,860.42-44.45-160.3-69.75-328.6-73.29-502.5-22.88-1122,868.16-2050.1,1990.2-2073,1122-22.86,2050.1,868.16,2072.9,1990.2,4.56,222.93-27.01,438.17-89.26,640.21"/><path id="path186" fill-rule="nonzero" fill="#fcd2a4" d="m4272.6,8110.9c-2.6-327.5,51.7-584.83-16.25-859.1-158.66-640.51-970.26-1082.3-1485.9-1071.8-514.01,10.49-1442.3,565.9-1531.4,1260.1-54.81,427.14-29.13,563.04-26.74,860.43,8.11,1015.6,465.54,1641.6,1341.8,1634.6,876.19-6.98,1726.6-808.46,1718.5-1824.1"/><path id="path188" fill-rule="nonzero" fill="#f0b085" d="M2554.1,9935c-876.2,7-1333.7-618.9-1341.8-1634.6-2.39-297.39-28.07-433.29,26.74-860.43,13.08-101.99,44.31-200.97,89.65-295.68,9.65,171.97,10,344.06-2.63,517.77,27.51-8.75,45.09-28.96,67.63-43.44,76.6,424.65,197.51,831.02,394.02,1232.1,94.46,178.8,168.71,340.01,274.25,514.23,28.57,50.43,63.66,85.21,97.96,130.69,59.16-296.57,191.98-571.67,345.41-834.54,30.22-46.17,60.04-86.98,95.6-132.74,107.47-148.02,220.67-300.97,391.78-363.74-3.59,123.31-1.82,247.01,5.28,371.09,112.81-147.61,217.26-328.05,374.68-424.08-10.88,149.65-30,425.26-42.15,508.75,84.14-122.83,325.9-229.49,440.17-323.26,171.22-138.02,419.11-265.8,458.35-510.1,28.07-164.51,38.65-252.69,29.31-419.93-1.07-59.17-43.44-198.96-66.27-254.36-22.46-60.73-44.9-121.45-83.78-178.01-19.98-31.1-37.3-64.51-57.48-95.45,95.99,124.53,168.52,263.07,205.51,412.44,67.95,274.27,13.65,531.6,16.25,859.1,8.12,1015.7-842.32,1817.1-1718.5,1824.1"/><g id="g190"><g id="g192" clip-path="url(#clipPath194)"><path id="path204" fill-rule="nonzero" fill="url(#linearGradient7458)" d="m2291,8577.2c-188.44,56.32-312.35,77.07-503.26,29.06-122.12-29.69-236.73-90.72-358.26-136.21-39.09-14.61-80.19-35.99-122.28-54.16l122.73,41.54c159.47,43.73,334.87,84.83,502.04,90.91,141.95,5.15,222.82-48.76,365.68-68.82,22.36-5.49,188.51-58.66,190.28-20.69,1.56,44.28-168.22,109.93-196.93,118.37"/></g></g><g id="g206"><g id="g208" clip-path="url(#clipPath210)"><path id="path220" fill-rule="nonzero" fill="url(#radialGradient7460)" d="m4198.9,7446c14.63-201.26-136.69-376.27-337.94-390.91-201.26-14.62-376.28,136.69-390.9,337.94-14.63,201.27,136.68,376.29,337.93,390.92,201.26,14.62,376.28-136.69,390.91-337.95"/></g></g><g id="g222"><g id="g224" clip-path="url(#clipPath226)"><path id="path236" fill-rule="nonzero" fill="url(#radialGradient7462)" d="m2098,7535c14.62-201.25-136.67-376.27-337.93-390.9s-376.28,136.68-390.91,337.94c-14.61,201.25,136.68,376.27,337.95,390.9,201.25,14.62,376.26-136.68,390.89-337.94"/></g></g><g id="g238"><g id="g240" clip-path="url(#clipPath242)"><path id="path252" fill-rule="nonzero" fill="url(#linearGradient7464)" d="m3342.7,8537c172.77,48.74,262.32,52.04,435.87,5.49,111.03-28.83,213.88-188.11,213.88-188.11-128.55,126.8-169.99,143.27-322.51,151.2-129.42,6.75-204.08-41.34-334.77-57.64-20.46-4.69-172.86-50.84-173.94-16.15-0.77,40.43,155.14,97.92,181.47,105.21"/></g></g><path id="path254" fill-rule="nonzero" fill="#f0b085" d="m2592.4,7223.4s-3.5-143.87,182.72-148.39c149.15-3.62,189.45,99.29,189.15,140.82-119.06-58.3-248.98-52.7-371.87,7.57"/><path id="path256" fill-rule="nonzero" fill="#f6827e" d="m3228.6,6850.9s-189.39-82.92-452.21-81.36c-231.72,1.4-434.61,74.32-434.61,74.32s143.78-284.63,445.82-273.75c302.1-10.74,441,280.79,441,280.79"/><path id="path258" fill-rule="nonzero" fill="#f79896" d="m3228.6,6850.9s-199.16-160.35-461.99-158.8c-231.72,1.41-424.83,151.76-424.83,151.76s154.36-263.28,456.41-252.37c302.09-10.76,430.41,259.41,430.41,259.41"/><path id="path260" fill-rule="nonzero" fill="#7f4a42" d="m3276,6902.3c-64.81-55-169.06-67.87-250.02-77.67-77.69-9.43-156.05-11.48-233.83-11.87v-0.09c-6.1-0.02-12.18-0.01-18.27-0.04-116.69-0.79-235.98,3.85-349.98,30.52-38.11,8.91-74.99,21.08-110.29,38.11-18.69,9.05-34.33,30.97-54.35,35.54-18.26,4.14,4.32-31.88,7.08-35.41,21.02-26.57,65.46-36.07,96.15-48.55,38.06-15.41,77.57-27.02,117.65-35.84,105.12-23.15,213.66-29.26,321.09-30.93l-0.03,1.41c88.46,5.69,203.09,16.07,221.83,19.12,79.53,12.97,150.94,39.91,225.92,67.41,23.7,8.71,42.75,20.89,53.86,44.47,13.64,28.81-14.44,14.36-26.81,3.82"/><path id="path262" fill-rule="nonzero" fill="#f6827e" d="m3215.9,6861.3s-139.47,67.79-443.31,67.72c-267.27-0.07-412.72-68.79-412.72-68.79s14.51-18.64,218.2-52.19c202.09-33.26,328.92-19.28,533.08,20.83,65.93,12.96,104.75,32.43,104.75,32.43"/><path id="path264" fill-rule="nonzero" fill="#f46a67" d="m3215.9,6861.3s-151.13,31.3-454.97,31.24c-267.26-0.07-401.06-32.31-401.06-32.31s14.51-18.64,218.2-52.19c202.09-33.26,328.92-19.28,533.08,20.83,65.93,12.96,104.75,32.43,104.75,32.43"/><path id="path266" fill-rule="nonzero" fill="#f9b2b3" d="m2955.5,6651.4c1.25-17.23-21.43-32.94-50.66-35.05-29.23-2.13-53.93,10.12-55.18,27.35-1.26,17.26,21.42,32.93,50.65,35.05,29.23,2.13,53.93-10.11,55.19-27.35"/><path id="path268" fill-rule="nonzero" fill="#f9b2b3" d="m3035.5,6690.2c4.87-16.58-13.97-36.71-42.09-44.97-28.11-8.26-54.86-1.5-59.72,15.08-4.89,16.57,13.97,36.71,42.09,44.96,28.1,8.27,54.84,1.52,59.72-15.07"/><path id="path270" fill-rule="nonzero" fill="#fbccd1" d="m3074.5,6709.2c3.84-13.09-11.04-28.97-33.23-35.5-22.18-6.51-43.29-1.19-47.13,11.89-3.84,13.09,11.03,28.98,33.22,35.5s43.3,1.19,47.14-11.89"/><path id="path272" fill-rule="nonzero" fill="#FFF" d="m2982.6,6674c2.68-9.14-7.7-20.27-23.21-24.81-15.51-4.55-30.26-0.83-32.95,8.32-2.68,9.14,7.72,20.24,23.22,24.79,15.5,4.56,30.25,0.84,32.94-8.3"/><path id="path274" fill-rule="nonzero" fill="#f0b085" d="m1847.7,8279.2s171.21,27.37,339.99-31.83c168.81-59.2,201.23-307.63,173.44-345.01-27.78-37.34-118.22-45.73-173.68-40.87-55.48,4.87-106.6-1.15-106.6-1.15s67.99-20.53,146.38-22.99c78.35-2.47,153.09-44.42,153.09-44.42l31.21,2.39s70.04,413.04-146.62,478.52c-268.02,80.99-417.21,5.36-417.21,5.36"/><path id="path276" fill-rule="nonzero" fill="#2f1d1a" d="m2424.3,7825.6s-177.78-81.67-423.04-20.27c-245.3,61.37-322.13,140.63-322.13,140.63l-86.63-70.46s125.56-161.86,398.22-211.15c272.67-49.31,454.37,74.36,454.37,74.36l-20.79,86.89"/><path id="path278" fill-rule="nonzero" fill="#2f1d1a" d="m1658.7,7835.6,37.77-38.7c-11.97-24.67-64.32-76.21-110.29-53.48,37.98,17.34,69.88,43,73.22,70.22-13.78-14.72-84.49-47.09-107-28.96,22.78,12.64,56.25,35.35,58.68,56.26-18.86-9.47-81.6-0.05-101.22,6.7,34.92,2.55,100.8,37.07,107.75,41.34,11.73-35.23,23.34-34.03,41.09-53.38"/><path id="path280" fill-rule="nonzero" fill="#f0b085" d="m3771.7,8279.2s-171.21,27.37-339.99-31.83c-168.81-59.2-201.23-307.63-173.44-345.01,27.78-37.34,118.22-45.73,173.68-40.87,55.48,4.87,106.61-1.15,106.61-1.15s-68-20.53-146.39-22.99c-78.35-2.47-153.08-44.42-153.08-44.42l-31.22,2.39s-70.04,413.04,146.62,478.52c268.02,80.99,417.21,5.36,417.21,5.36"/><path id="path282" fill-rule="nonzero" fill="#2f1d1a" d="m3195.2,7825.6s177.77-81.67,423.03-20.27c245.3,61.37,322.13,140.63,322.13,140.63l86.63-70.46s-125.56-161.86-398.22-211.15c-272.66-49.31-454.37,74.36-454.37,74.36l20.8,86.89"/><path id="path284" fill-rule="nonzero" fill="#2f1d1a" d="m3960.8,7835.6-37.77-38.7c11.97-24.67,64.33-76.21,110.29-53.48-37.98,17.34-69.88,43-73.22,70.22,13.78-14.72,84.49-47.09,107.01-28.96-22.79,12.64-56.25,35.35-58.69,56.26,18.86-9.47,81.6-0.05,101.22,6.7-34.92,2.55-100.79,37.07-107.75,41.34-11.73-35.23-23.33-34.03-41.09-53.38"/><g id="g286"><g id="g288" clip-path="url(#clipPath290)"><path id="path300" fill-rule="nonzero" fill="url(#linearGradient7466)" d="m4525.1,9442.3s-304.28,699.86-1172.5,962.86c-129.58,39.3-836.56,108.1-1162.5,23.7-878.2-227-1362.4-1037.4-1362.4-1037.4-319.99-636.5-358.56-1444.7-156.53-2405.9,253.15-1204.3,1141.3-1014.6,1141.3-1014.6s-89.38,35.55-222.64,110.25c-133.26,74.73-392.91,408-392.91,408l266.8-93.9c266.79-93.91,322.13,18.81,322.13,18.81s-201.98-48.44-467.69,406.68c-165.5,283.51-174.02,796.6-157,1143.2,61.96-139.55,129.05-247.05,182.86-253.63,56.27,391.68,190.14,932.86,392.76,1272.7,107.02,181.98,204.61,356.59,302.28,531.22,36.23,63.89,83.72,126.43,117.61,193.2-67.87-247.83,8.69-521.55,68.06-767.04,91.85-358.84,678.94-754.83,678.94-754.83s-243.9,405-300.96,632.43c-32.79,148.12-9.67,450.54-9.67,450.54s82.93-510.4,270.4-711.34c147.7-179.13,295.44-358.26,504.52-451.62-95.56,189.72-144.02,695.92-144.02,695.92s1099.7-847.1,1115.5-815.09c2.94-347.03-85.65-945.45-262.6-1222-284.01-443.92-483.86-387.29-483.86-387.29s50.67-114.84,321.09-31.91c270.45,82.96,270.45,82.96,270.45,82.96s-273.04-322.45-409.27-391.67c-136.17-69.22-226.92-101.08-226.92-101.08s898.26-165.37,1200.3,1027.7c241.04,952.15,70.29,1830-223.52,2479"/></g></g><g id="g302"><g id="g304" clip-path="url(#clipPath306)"><path id="path316" fill-rule="nonzero" fill="url(#linearGradient7468)" d="m4110.8,8600.6c-58.2,135.48-216.69,172.31-315.7,277.93-156.73,160.56-256.23,346.74-393.13,530.21-41.31,50.73-77.25,101.84-113.59,158.29-11.86,15.27-29.44,35.48-41.29,50.74-66.92,112.59-109.99,233.59-143.04,356.26-5.28,7.31-10.54,14.62-15.75,21.94-113.48-230.13-84.21-489.9-26.46-716.52-227.48,235.14-323.04,551.79-445.56,847.39-44.58-165.41-5.01-341.02-1.52-512.25-184.6,158.5-194.25,419.35-131.82,647.35-9.16,0.2-18.38,0.3-27.53,0.3-194.68-436.22-158.99-958.41,46.44-1405.9,2.29,185.6,45.63,377.38,51.94,558.32,244.16-298.18,366.96-691.33,639.59-956.43-63.59,178.57-152.69,348.03-91.67,547.98,308.55-238.66,830.46-516.96,1148-828.9-5.85,50.77-15,101.52-27.82,152.01-23.41,100.38-77.34,177.05-111.05,271.31"/></g></g><g id="g318"><g id="g320" clip-path="url(#clipPath322)"><path id="path332" fill-rule="nonzero" fill="url(#linearGradient7470)" d="m1393.6,8604.7c112.94,425.41,264.83,870.44,583.87,1185.3-205.53-84.72-362.69-272.92-471.82-467.01-21.77,286.5,80.12,547.3,252.27,758.25-378.63-209.64-500.95-513.68-500.95-513.68-116.25-178.93-213.1-490.78-253.15-749.17,103.12,204.7,231.01,393.9,364.97,582.3-104.43-255.63-66.03-540.92,24.81-795.99"/></g></g><path id="path334" fill-rule="nonzero" fill="#2f1d1a" d="m2135.1,9391.6c13.97-152.77,54.74-306.69,89.63-450.95,91.85-358.84,678.94-754.83,678.94-754.83s-47.24,78.41-104.96,185.57c-354.34,220.49-575.59,614.43-663.61,1020.2"/><path id="path336" fill-rule="nonzero" fill="#2f1d1a" d="m2651.9,9009.7c43.95-157.18,113.4-347.05,211.51-452.23,147.7-179.13,295.44-358.26,504.52-451.62-19.83,39.33-37.58,92.23-53.33,151.44-283.78,173-523.41,443.39-662.7,752.41"/><path id="path338" fill-rule="nonzero" fill="#2f1d1a" d="m1300.2,7878.2c-143.91,235.91-251.08,491.7-315.22,759.75-2.73-63.29,0.036-118.35,9.145-160.71,45.484-223.98,184.59-617.86,297.06-733.82,18.52-19.1,36.33-30.91,52.86-32.95,3.7,25.88,7.78,52.41,12.18,79.49-19.31,29.05-37.92,58.54-56.03,88.24"/><g id="g340"><g id="g342" clip-path="url(#clipPath344)"><path id="path354" fill-rule="nonzero" fill="url(#linearGradient7472)" d="m1175.6,6791.6c-120.37,264.94-141.42,549.45-191.42,836.78-12.203-125.42-15.676-261.45-37.496-385.94-114.2,127.97-86.36,514.87-81.004,670.18-147.12-530.56-39.602-1009.1,164.77-1311.5-32.265,168.75-82.012,358.62-84.433,534.2,46.66-121.41,121.29-255.28,229.58-343.75"/></g></g><g id="g356"><g id="g358" clip-path="url(#clipPath360)"><path id="path370" fill-rule="nonzero" fill="url(#linearGradient7474)" d="m4191.8,6730.2c131.06,259.81,163.67,543.23,225.36,828.29,7.06-125.83,4.96-261.87,21.75-387.16,119.29,123.21,107.24,510.93,108.2,666.34,125.38-536.12-1.55-1009.9-218.06-1303.7,39.13,167.26,96.56,354.97,106.16,530.29-51.59-119.4-131.61-250.13-243.41-334.1"/></g></g><path id="path372" fill-rule="nonzero" fill="#FFF" d="m3811.8,4922.1c0.93-279.32,25.61-804.33,25.61-804.33l685.33,32.82s-44.49,508.74-128.47,855.37c-83.97,346.62-379.48,520.07-454.27,536.22-74.78,16.15-129.12-340.77-128.2-620.08"/><path id="path374" fill-rule="nonzero" fill="#f2f2f2" d="m4522.7,4150.6s-44.49,508.74-128.47,855.37c-54.24,223.91-196.72,375.46-310.99,459.12,270.1-345.44,391.98-792.41,341.09-1225,0-30-100-40-160-60-144.1-37.92-288.18-18.37-427.91-41.58,0.61-13.31,0.95-20.68,0.95-20.68l685.33,32.82"/><g id="g376"><g id="g378" clip-path="url(#clipPath380)"><path id="path390" fill-rule="nonzero" fill="url(#linearGradient7476)" d="m1749.8,3964.8s95.89,40.45,175.5,57.22c79.62,16.77,150.18,25.23,161.36-33.47s-93.67-139.84-121.63-159.41c-27.95-19.56-157.11-67.09-157.11-67.09s-27.38,68.27-30.17,120.79c-2.8,52.52-27.95,81.96-27.95,81.96"/></g></g><path id="path392" fill-rule="nonzero" fill="#f0b085" d="m1923.1,4008.7c-80.01-14.79-185.94-26.48-185.94-26.48s8.8-10.38,16.58-29.7c106.76,9.91,213.53,46.77,320.29,53.45-29.86,23.39-84.44,15.03-150.93,2.73"/><path id="path394" fill-rule="nonzero" fill="#fcd2a4" d="m1839.2,4715.2c-20.72-19.98-58.71-55.91,0-109.02,33.79-30.57,156.53,5.6,264.71,16.55,71.91,7.29,125.36,57.15,118.24,78.5-16.77,50.31-357.94,38.12-382.95,13.97"/><path id="path396" fill-rule="nonzero" fill="#fcd2a4" d="m1965,4625.8c-19.57-22.36-30.75-36.33-47.52-83.86-16.77-47.51-69.88-198.46-69.88-198.46s-114.61-78.27-162.13-69.89-65.61,29.92-65.61,29.92,54.43,107.05,101.95,207.68c47.52,100.64,84.81,194.55,117.41,204.06,32.59,9.52,125.78-89.45,125.78-89.45"/><path id="path398" fill-rule="nonzero" fill="#f0b085" d="m1733,4329.4s266.49,51.25,344.76,20.5c78.27-30.74,74.54-132.31,41-149.08s-371.78-50.31-371.78-50.31-27.95,55.86-36.34,89.45c-8.39,33.58,22.36,89.44,22.36,89.44"/><path id="path400" fill-rule="nonzero" fill="#fcd2a4" d="m1709.2,4315.5s253.14,56,331.41,25.24c78.27-30.74,38.49-121.22,4.95-137.99-33.55-16.77-319.54-35.41-319.54-35.41s-6.98,39.1-15.37,72.69c-8.39,33.58-1.45,75.47-1.45,75.47"/><path id="path402" fill-rule="nonzero" fill="#fcd2a4" d="m1660.3,4340.6s-41.93-29.22-61.49-67.72c-19.57-38.51-36.34-91.61-41.94-200.63-5.59-109.02-58.7-310.29-92.24-346.63s-33.54-36.34-33.54-36.34-2.8-139.76,53.11-206.85c55.9-67.09,142.45-100.62,224.97-22.36,82.52,78.27,121.65,184.49,127.24,240.4s0,72.67,0,72.67,0,92.25-11.18,206.86-125.79,366.19-164.93,360.6"/><path id="path404" fill-rule="nonzero" fill="#fcd2a4" d="m1759.5,3935.3s101.58,36.73,183.09,41.94c81.2,5.18,86.77,29.46,97.95-29.24s-55.34-87.44-86.77-100.74c-42.46-17.99-158-50.85-158-50.85s-57.24,34.07-60.03,86.6c-2.8,52.52,23.76,52.29,23.76,52.29"/><g id="g406"><g id="g408" clip-path="url(#clipPath410)"><path id="path420" fill-rule="nonzero" fill="url(#linearGradient7478)" d="m1737.7,4169.9s280.4,10.98,330.71,0c50.32-10.96,78.27-69.67,78.27-97.62s-47.12-27.06-93.96-36.44c-53.21-10.65-289-83.76-289-83.76s-54.56,39.13-54.56,111.36c0,54.35,28.54,106.46,28.54,106.46"/></g></g><path id="path422" fill-rule="nonzero" fill="#fcd2a4" d="m1719,4150.6s196.63,28.66,246.94,17.68c50.32-10.97,33.58-66.14,33.58-94.1,0-27.95-10.07-28.07-74.26-52.17-44.71-16.79-183.89-61.49-183.89-61.49s-32.2,30.74-32.2,102.97c0,54.35,9.83,87.11,9.83,87.11"/><path id="path424" fill-rule="nonzero" fill="#ec008c" d="m2078.2,4648.6s106.23,1.45,136.97,16.54c30.75,15.11,29.36,47.25,0,59.84-29.34,12.58-106.02,12.05-121.59,11.14-15.58-0.91-27.96-29.84-29.35-43.55-1.4-13.71,13.97-43.97,13.97-43.97"/><g id="g426"><g id="g428" clip-path="url(#clipPath430)"><path id="path440" fill-rule="nonzero" fill="url(#linearGradient7480)" d="m1987.5,3860.3c-139.98-41.04-212.19-56.81-230.81-54.95,50.76-58.7-40.53-320.06-163.52-375.97-6.41-3.84-13.15-6.88-20.1-9.36,42.58-12.42,89.94-3.62,136.05,40.11,82.52,78.27,121.65,184.49,127.24,240.4s0,72.67,0,72.67,151.84,62.46,151.14,87.1"/></g></g><g id="g442"><g id="g444" clip-path="url(#clipPath446)"><path id="path456" fill-rule="nonzero" fill="url(#linearGradient7482)" d="m2686.2,4404.9s55.91-46.38,92.24-101.46c36.35-55.08,47.52-186.46,72.69-253.55,25.15-67.09,125.78-405.32,125.78-405.32s-11.18-103.43-55.91-164.92c-44.72-61.5-204.05-123-282.32-100.64-78.27,22.37-156.54,229.22-184.5,279.53-27.95,50.32-64.29,164.94-64.29,164.94s123.86,418.69,154.21,464.02c30.33,45.32,142.1,117.4,142.1,117.4"/></g></g><path id="path458" fill-rule="nonzero" fill="#fcd2a4" d="m2686.2,4404.9s55.91-46.38,92.24-101.46c36.35-55.08,47.52-186.46,72.69-253.55,25.15-67.09,125.78-405.32,125.78-405.32s-11.18-103.43-55.91-164.92c-44.72-61.5-122.52-87.21-200.79-64.86-78.26,22.37-168.19,207.41-196.14,257.74-11.2,20.17-41.63,58.32-53.11,89.44-13.89,37.67,60.1,127.64,60.1,127.64s88.46,317.18,118.8,362.5,36.34,152.79,36.34,152.79"/><path id="path460" fill-rule="nonzero" fill="#fcd2a4" d="m2529.6,4642.5c-44.3,22.16-232.01-22.35-262.76-33.54-30.75-11.18-99.36-41.93-44.09-78.27,55.27-36.33,278.89-19.57,292.87-19.57s47.52,114.61,13.98,131.38"/><path id="path462" fill-rule="nonzero" fill="#fcd2a4" d="m2482.1,4541.9s34.77-81.08,61.96-136.97c27.18-55.89,7.92-86.66,72.21-109.01,13.02-4.54,36.37-37.55,47.52-37.48,43.96,0.27,60.37,77.09,55.91,107.88-5.59,38.61-44.72,136.45-83.86,175.58-39.13,39.14-80.44,95.01-106.22,100.63-25.78,5.63-47.52-100.63-47.52-100.63"/><path id="path464" fill-rule="nonzero" fill="#f0b085" d="m2663.8,4258.4s-210.58,82.37-263.69,82.28c-53.11-0.08-264.62-23.49-328.91-41.14-64.3-17.65-131.49-42.48-85.34-79.13,46.14-36.64,305.98-47.53,387.14-69.89,81.15-22.37,237.69-87.11,237.69-87.11s72.68,36.79,86.66,87.11c13.98,50.31-33.55,107.88-33.55,107.88"/><path id="path466" fill-rule="nonzero" fill="#fcd2a4" d="m2663.8,4258.4s-210.58,82.37-263.69,82.28c-53.11-0.08-264.62-23.49-328.91-41.14-64.3-17.65-44.55-30.84,1.59-67.49,46.15-36.64,244.31-34.93,325.46-57.29,81.16-22.37,212.44-111.35,212.44-111.35s95.75,1.24,109.73,51.55-56.62,143.44-56.62,143.44"/><path id="path468" fill-rule="nonzero" fill="#fcd2a4" d="m2512.9,3889.6c-42.53,26.98-159.33,28.91-204.06,48.47-44.73,19.57-120.2,17.67-128.58-48.47-8.39-66.13,248.78-136.02,290.71-127.64,41.93,8.39,128.38,72.79,41.93,127.64"/><path id="path470" fill-rule="nonzero" fill="#f0b085" d="m2610.7,4063.4s-213.93,88.67-324.12,102.07c-110.2,13.4-265.69,51.3-285.26,0-19.56-51.3,115.81-120.05,221.47-149.14,142.17-39.13,256.31-103.52,283.12-122.9s107.59-17.56,124.36,55.47c16.78,73.02-19.57,114.5-19.57,114.5"/><path id="path472" fill-rule="nonzero" fill="#fcd2a4" d="m2610.7,4063.4s-213.93,88.67-324.12,102.07c-110.2,13.4-265.69,51.3-285.26,0-19.56-51.3,123.63-106.08,229.29-135.16,142.17-39.14,273.61-121.34,300.43-140.72,26.81-19.37,114.86-56.77,131.63,16.26s-51.97,157.55-51.97,157.55"/><path id="path474" fill-rule="nonzero" fill="#ec008c" d="m2340.8,4563.9c1.9,18.28-14.98,47.95-37.31,48.94-15.11,0.67-145.36-13.38-141.12-59.77,4.22-46.4,123.71-46.63,147.49-31.02,10.68,7.03,29.39,26.93,30.94,41.85"/><path id="path476" fill-rule="nonzero" fill="#ec008c" d="m2129.8,4253.2c1.9,18.29-14.98,47.94-37.31,48.94-15.11,0.68-145.36-13.37-141.13-59.77,4.24-46.39,123.72-46.64,147.49-31.02,10.69,7.03,29.4,26.92,30.95,41.85"/><path id="path478" fill-rule="nonzero" fill="#ec008c" d="m2136.8,4115.6c8.21,16.44,2.84,50.15-17.72,58.94-13.9,5.95-140.77,38.6-153.13-6.32-12.35-44.92,99.41-87.17,127.15-80.92,12.48,2.82,37,14.88,43.7,28.3"/><path id="path480" fill-rule="nonzero" fill="#ec008c" d="m2307.3,3871.2c8.2,16.43,2.83,50.14-17.73,58.93-13.9,5.95-125.83,39.86-138.18-5.06-12.36-44.92,84.46-88.42,112.21-82.17,12.48,2.82,36.99,14.87,43.7,28.3"/><path id="path482" fill-rule="nonzero" fill="#fcd2a4" d="m1453.8,3713.9s-109.36-77.72-251.93-178.35c-142.56-100.64-441.66-444.47-271.14-654.11,170.52-209.66,394.14-190.09,556.26-16.77,162.13,173.31,150.95,382.96,178.9,471.01,27.96,88.05,43.28,124.39,43.28,124.39l-255.37,253.83"/><g id="g484"><g id="g486" clip-path="url(#clipPath488)"><path id="path498" fill-rule="nonzero" fill="url(#linearGradient7484)" d="m1672.1,3497c-2.97-6.21-17.32-42.18-17.32-48.39-44.71-324.25-218.09-768.38-609.43-578.3-33.54,11.19-78.269,22.37-100.63,55.91-26.536,33.16-48.028,69.33-65.008,107.23-0.907-54.41,13.949-106.35,51.035-151.95,170.52-209.66,394.14-190.09,556.26-16.77,162.13,173.31,150.95,382.96,178.9,471.01,27.96,88.05,43.28,124.39,43.28,124.39l-37.09,36.87"/></g></g><path id="path952" fill-rule="nonzero" fill="#f24daf" d="m1458.2,5896.4c-27.47-12.34-50.24-40.13-52.8-70.91-29.48,9.25-63.81-1.35-85.6-22.14-22.43-21.39-31.57-53.58-8.47-86.04,29.69-43.64,204.82-59.94,205.7-57.86,2.25,0.02,53.25,168.35,24.04,212.33-21.34,33.63-54.59,37.31-82.87,24.62"/><path id="path954" fill-rule="nonzero" fill="#f24daf" d="m458.73,7295c-35.867-4.4-71.824-28.19-85.672-62.57-30.519,21.05-73.632,21.08-105.98,4.98-33.301-16.58-55.195-50.24-40.227-95.63,18.575-60.56,213.56-141.35,215.29-139.28,2.598-0.77,120.74,174.13,102.85,234.9-12.527,46.12-49.356,62.12-86.27,57.6"/><path id="path956" fill-rule="nonzero" fill="#f24daf" d="m550.67,9351.8c-38.988,19-90.719,18.55-127.12-7.01-16.969,41.12-60.344,69.33-103.42,74.25-44.352,5.07-88.391-14.5-102.97-69.97-20.879-73.1,122.6-281.8,125.7-280.85,2.11-2.48,235.3,96.37,256.99,169.23,17.524,54.61-9.086,94.77-49.191,114.35"/><path id="path960" fill-rule="nonzero" fill="#f24daf" d="m1682.2,10771c-30.54,30.8-79.52,47.5-122.32,35.4-2.46,44.4-34.1,85.3-73.15,104.2-40.19,19.4-88.23,15.4-120.28-32.1-43.82-62.2,22.81-306.5,26.05-306.6,1.18-3.1,253.91,13.3,298.43,75,34.55,45.7,22.68,92.4-8.73,124.1"/><path id="path962" fill-rule="nonzero" fill="#f24daf" d="m3449.1,11073c-20.44,38.3-62.61,68.2-107.09,68.9,10.36,43.2-8.23,91.5-40.25,120.7-32.95,30.2-80.11,40.1-124.43,3.7-59.78-46.9-65.91-300.1-62.84-301.2,0.26-3.2,247.12-59.9,307.41-13.6,46.22,34,48.21,82.1,27.2,121.5"/><path id="path964" fill-rule="nonzero" fill="#f24daf" d="m5339,10708c-20.44,38.2-62.61,68.2-107.09,68.8,10.37,43.3-8.23,91.6-40.24,120.8-32.95,30.1-80.11,40.1-124.44,3.7-59.77-47-65.9-300.2-62.83-301.2,0.25-3.3,247.11-59.9,307.4-13.6,46.22,34,48.21,82.1,27.2,121.5"/><path id="path980" fill-rule="nonzero" fill="#f24daf" d="m1967.3,5256.6c51.14,0,95.67-27.98,119.35-69.4-14.83,59.92-68.81,104.4-133.32,104.4-75.94,0-137.5-61.56-137.5-137.5,0-24.8,6.66-48,18.15-68.09-2.63,10.62-4.18,21.66-4.18,33.09,0,75.94,61.56,137.5,137.5,137.5"/><path id="path982" fill-rule="nonzero" fill="#f24daf" d="m1939.1,5368.7c65.3,0,122.16-35.73,152.4-88.63-18.94,76.52-87.87,133.32-170.23,133.32-96.97,0-175.59-78.62-175.59-175.58,0-31.68,8.51-61.31,23.18-86.95-3.36,13.57-5.34,27.66-5.34,42.25,0,96.98,78.61,175.59,175.58,175.59"/><path id="path984" fill-rule="nonzero" fill="#f24daf" d="m1893.9,5509.9c72.77,0,136.14-39.82,169.85-98.78-21.11,85.29-97.93,148.59-189.73,148.59-108.07,0-195.68-87.62-195.68-195.68,0-35.31,9.48-68.32,25.82-96.91-3.74,15.12-5.94,30.83-5.94,47.1,0,108.07,87.61,195.68,195.68,195.68"/></g><g id="g4692" transform="scale(0.1,0.1)"><g id="g6555"><path id="path4694" fill-rule="nonzero" fill="#fcd2a4" d="m1207.4,4242.8s-55.91-240.4-131.38-452.84c-75.47-212.45-255.04-691.4-191.81-809.78,63.222-118.39,353.94-171.38,474.14-121.07,120.2,50.32,242.85,564.66,276.56,757.54,33.72,192.88,114.79,464.03,114.79,464.03l-542.3,162.12"/><g id="g4696"><g id="g4698" clip-path="url(#clipPath24)"><path id="path4700" fill-rule="nonzero" fill="url(#linearGradient7442)" d="m1207.4,4242.8s-19.24-82.7-50.36-193.91c67.4-27.54,124.63-76.98,201.31-94.01,134.17-44.72-100.63-275.81-216.26-380.08-126.6-135.6-206.65-200.4-238.91-318.3-30.43-123.1-44.21-228.8-18.83-276.3,63.22-118.4,353.94-171.4,474.14-121.1,120.2,50.32,242.85,564.66,276.56,757.54,33.72,192.88,114.79,464.03,114.79,464.03l-542.3,162.12"/></g></g><path id="path4702" fill-rule="nonzero" fill="#FFF" d="m1682.7,5445.9s-167.77-48.67-251.61-188.43c-83.83-139.77-324.23-1055.4-324.23-1055.4s68.49-42.86,261.37-84.34c192.88-41.47,292.99-54.68,292.99-54.68s78.26-23.07,115.27,128.53c37.02,151.6,26.71,713.7,0,942.92-26.7,229.22-93.79,311.43-93.79,311.43"/><path id="path4704" fill-rule="nonzero" fill="#f2f2f2" d="m1274.3,4310c160-30,320,0,460,70-100-240-350-170-540-110,126.18-81.11,260.52-154,402.94-196.91,42.33-7.18,63.9-10.03,63.9-10.03s78.26-23.07,115.27,128.53c14.86,60.85,22.09,187.85,23.69,332.9-117.66-139.22-349.79-155.82-525.8-214.49"/><path id="path4706" fill-rule="nonzero" fill="#231f20" d="m2364.7,854.28s113.64-190.08,311.19-212.44c197.56-22.363,270.23,50.312,326.14,212.44s229.22,793.87,229.22,793.87l-1241.4-46.26,374.85-747.61"/><path id="path4708" fill-rule="nonzero" fill="#231f20" d="m2778.6,0c11.76,221.12-19.8,416.33-102.66,552.38-98.75,162.13-518.05,911.28-590.72,1011.9-72.69,100.63-721.2,0-721.2,0s-95.04-184.49-111.81-257.17c-16.1-69.5-123.6-834.6,20.9-1307.1h1505.5"/><g id="g4710"><g id="g4712" clip-path="url(#clipPath48)"><path id="path4714" fill-rule="nonzero" fill="url(#radialGradient7444)" d="m1391,1260c0,20,90,0,120-30,854-138.5,1194-525.64,1267.6-1230h-1297.7c-151.7,394.93-190.28,822.31-89.83,1260"/></g></g><path id="path4716" fill-rule="nonzero" fill="#231f20" d="m4008,0c8,31.465,15.63,62.812,22.77,93.945,139.77,609.39,190.08,788.28,83.86,1146.1-106.22,357.8-195.68,486.39-195.68,486.39l-782.68-55.9s-229.44-737.97-355.12-1157.3c-41.5-137.97-79.5-321.41-112.7-513.2h1339.5"/><g id="g4718"><g id="g4720" clip-path="url(#clipPath66)"><path id="path4722" fill-rule="nonzero" fill="url(#radialGradient7446)" d="m3984.3,1260c0,20-90,0-120-30-450-335.32-931.4-217.8-1159-1230h1189.2c151.7,394.93,190.28,822.31,89.83,1260"/></g></g><path id="path4724" fill-rule="nonzero" fill="#fcd2a4" d="m2575.3,6258.2s43.76-388.55-12.15-466.81c-55.91-78.28-400.96-190.09-400.96-190.09s216.34-486.39,687.42-514.34c471.08-27.96,680.73,539.49,680.73,539.49s-338.24,86.66-385.76,181.7-22.36,505.96-22.36,505.96l-546.92-55.91"/><g id="g4726"><g id="g4728" clip-path="url(#clipPath84)"><path id="path4730" fill-rule="nonzero" fill="url(#linearGradient7448)" d="m2576.4,5821.2c-3.61-12.29-7.99-22.42-13.26-29.78-55.91-78.28-400.96-190.09-400.96-190.09s6.06-13.6,18.28-36.28c144.14-74.24,304.44-117.73,474.93-123.05-16.86,126.4-52.74,252.8-78.99,379.2"/></g></g><g id="g4732"><g id="g4734" clip-path="url(#clipPath100)"><path id="path4736" fill-rule="nonzero" fill="url(#linearGradient7450)" d="m3144.6,5808.2c-22.93,45.85-69.49-239.47-131.38-332.64,181.75,0,359.12,43.7,510.27,133.84,4.57,10.91,6.87,17.1,6.87,17.1s-338.24,86.66-385.76,181.7"/></g></g><path id="path4738" fill-rule="nonzero" fill="#f0b085" d="m3116,6139.6c1.45,96.19,6.24,174.54,6.24,174.54l-546.92-55.91s7.46-66.39,12.29-149.77c141.43-179.87,334.35-44.28,528.39,31.14"/><path id="path4740" fill-rule="nonzero" fill="#f0b085" d="m3009.5,6120.3s-19.98-614.54-106.89-674.39-182.42-18.85-182.42-18.85,89.46-14.9,144.66,44.73,66.62,167.72,90.72,346.62c24.12,178.9,53.93,301.89,53.93,301.89"/><path id="path4742" fill-rule="nonzero" fill="#FFF" d="m2222.8,5628.4-540.13-182.42s53.9-587.32,26.5-803.19c-27.41-215.87-92.77-703.86,0-928.81s149.52-593.93,149.09-754.19c-0.42-160.27-51.36-320.52-81.8-383.89-30.43-63.37-97.52-119.26-97.52-190.08,0-70.83-63.36-137.91-85.72-186.37-22.37-48.44-82-81.97-85.73-152.8-3.73-70.82-3.72-85.71-22.36-111.81s-82-37.27-108.09-111.81c-26.08-74.54-22.36-104.37-33.55-141.63-11.18-37.27-49.09-234.82-49.09-234.82s142.27-152.81,1361-186.35c1218.8-33.55,1401.4,245.99,1401.4,245.99s7.46,74.54-29.81,164c-37.28,89.44-48.45,119.25-67.09,186.34s-37.27,119.27-55.9,175.18c-18.65,55.91-3.74,85.71-26.1,149.08-22.36,63.36-108.08,126.73-122.99,175.18-14.91,48.44,7.45,70.82-14.91,130.45s-78.27,74.54-111.82,171.44c-33.54,96.91-79.59,275.81-58.43,354.08,21.17,78.27,91.98,730.51,200.07,965.32,108.08,234.8,190.08,363.47,190.08,363.47l3.72,1196.3-494.54,106.77s-253.24-461.66-619.46-461.66c-316.89,0-626.85,446.21-626.85,446.21"/><path id="path4744" fill-rule="nonzero" fill="#f2f2f2" d="m1554.3,1810c380,120,790,60,1190,10-240,160-510,60-780,120-110,20-240,60-280,160-60,150,140,240,290,210,220-30,420-130,640-80-290,50-600,50-810,250-24.71,20.59-37.41,44.18-42.4,69.92-33.25-53.18-83.01-103.12-83.01-164.14,0-70.83-63.36-137.91-85.72-186.37-22.37-48.44-82-81.97-85.73-152.8-3.73-70.82-3.72-85.71-22.36-111.81s-82-37.27-108.09-111.81c-26.08-74.54-22.36-104.37-33.55-141.63-1.53-5.12-3.58-13.33-5.96-23.57,60.77,70.22,134.6,124.81,216.82,152.21"/><path id="path4746" fill-rule="nonzero" fill="#f2f2f2" d="m3959.9,1856.5c-18.64,67.09-37.27,119.27-55.9,175.18-18.65,55.91-3.74,85.71-26.1,149.08-22.36,63.36-108.08,126.73-122.99,175.18-14.91,48.44,7.45,70.82-14.91,130.45s-78.27,74.54-111.82,171.44c-19.62,56.69-43.51,141.43-55.73,217.69-8.67,54.09-11.49,103.91-2.7,136.39,21.17,78.27,91.98,730.51,200.07,965.32,108.08,234.8,190.08,363.47,190.08,363.47l3.72,1196.3c-13.41-31.71-114.62-200.6-123.15-234.74-70-300-96.15-422.3-106.15-712.3-10-360-462.54-641.99-955.98-691.82-275.19-27.8-564.02,1.82-814.02,141.82-340,180-180,620-210,940-5.85,105.28-25.5,207.13-58.72,305.57,13.95-190.01,31.81-498.92,13.54-642.82-27.41-215.87-92.77-703.86,0-928.81,68.46-166.03,117.29-410.46,138-591.58,30.41,140.46,46.64,285.41,57.18,427.64,240-10,490-10,730-20,50,0,100-110,140-180,90-150,220-260,350-370,55.84-45.37,118.99-65.14,184.77-75.52,55.19-173.37,188.55-302.25,335.23-424.48,30-30,10-60,0-80-200-210-520-170-780-260,210-30,410-10,620,30,110,20,210,120,300,70,40-20,80-130,40-170-370-320-870-370-1330-480,500-40,970,90,1440,250,25.42-44.98,51.98-89.96,78.36-135.23-26.23,63.94-36.78,94.17-52.78,151.75"/><path id="path4748" fill-rule="nonzero" fill="#f2f2f2" d="m2180.5,5565s226.08-445.06,668.29-451.72,668.88,451.72,668.88,451.72-139.1-488.51-668.03-478.06c-514.37,10.17-669.14,478.06-669.14,478.06"/><path id="path4750" fill-rule="nonzero" fill="#fcd2a4" d="m3874.3,4562.8s61.35-463.24,80.92-613.83c19.56-150.6,16.77-402.18,16.77-410.57s287.92-287.92,363.39-349.42c75.47-61.49,121.02-92.44,121.02-92.44s38.32,78.47,32.72,411.11c-5.59,332.64-25.16,844.19-47.52,1011.9-22.36,167.72-229.21,1025.9-441.66,916.87-212.44-109.02-125.64-873.63-125.64-873.63"/><g id="g4752"><g id="g4754" clip-path="url(#clipPath130)"><path id="path4756" fill-rule="nonzero" fill="url(#linearGradient7452)" d="m4097.8,3545.2c-55.91,33.53-67.09,398.52,11.18,465.61,92.05,84.39,241.98,79.31,359.55,132.78-7.79,162.15-17.08,302.26-26.91,375.97-22.36,167.72-229.21,1025.9-441.66,916.87-212.44-109.02-125.64-873.63-125.64-873.63s61.35-463.24,80.92-613.83c19.56-150.6,16.77-402.18,16.77-410.57s287.92-287.92,363.39-349.42c75.47-61.49,121.02-92.44,121.02-92.44s9.3,19.16,18.08,78.32c-24.49,128.88-175.86,236.44-376.7,370.34"/></g></g><path id="path4758" fill-rule="nonzero" fill="#231f20" d="m2487.7,5123.3c-90.1,58.83-228.08,62.83-305.17,56.73-77.08-6.11-263.27-8.58-295.83-79.09-33.54-72.68-5.59-329.85,13.98-525.52,19.57-195.68,39.13-409.95,187.29-400.65,148.15,9.3,352.21,6.51,382.96,12.09,30.74,5.6,75.47,25.16,95.04,117.41,19.57,92.24,2.79,578.63,0,640.13-1.26,27.79-3.99,130.39-78.27,178.9"/><path id="path4760" fill-rule="nonzero" fill="#524f4b" d="m2461.8,5044.1c-81.27,53.06-205.72,56.66-275.24,51.16s-237.45-7.73-266.81-71.32c-30.25-65.55-5.04-297.5,12.6-473.99,17.65-176.48,35.3-369.73,168.92-361.35,133.62,8.39,317.67,5.87,345.4,10.92,27.73,5.03,68.07,22.69,85.72,105.88,17.64,83.2,2.52,521.88,0,577.34-1.15,25.06-3.61,117.62-70.59,161.36"/><g id="g4762"><g id="g4764" clip-path="url(#clipPath150)"><path id="path4766" fill-rule="nonzero" fill="url(#linearGradient7454)" d="m2163.4,4659.3c-57.31,47.77-155.42,46.54-245.54,38.2,4.56-50.32,9.75-100.87,14.41-147.54,17.65-176.48,35.3-369.73,168.92-361.35,133.62,8.39,317.67,5.87,345.4,10.92,27.73,5.03,68.07,22.69,85.72,105.88,8.65,40.79,9.42,166.98,7.66,291.58-129.77-30.63-264.13-26.45-376.57,62.31"/></g></g><path id="path4768" fill-rule="nonzero" fill="#fcd2a4" d="m2904.2,3790s226.43-128.58,522.73-162.13c296.3-33.54,416.5-55.9,545.09-89.45,128.58-33.54,517.73-271.43,517.69-343.83-0.1-190.1-151.5-402.52-432.29-374.57-216.97,21.6-781.44,321.47-862.5,363.39-81.07,41.93-466.82,186.29-511.55,190.99-44.72,4.68,220.83,415.6,220.83,415.6"/><g id="g4770"><g id="g4772" clip-path="url(#clipPath168)"><path id="path4774" fill-rule="nonzero" fill="url(#linearGradient7456)" d="m4299.1,2970.9c-503.16-111.82-872.14,279.53-1330.6,402.53-91.09,27.33-182.19,47.1-273.28,59.58-15.79-34.54-22.21-57.6-11.85-58.68,44.73-4.7,430.48-149.06,511.55-190.99,81.06-41.92,645.53-341.79,862.5-363.39,257.54-25.63,408.56,150.96,429.67,327.05-35.68-87.43-96.91-155.86-188.02-176.1"/></g></g><path id="path4776" fill-rule="nonzero" fill="#231f20" d="m2942.9,3227.3c-30.28,0-34.83,71.98-34.83,71.98,7.33-2.74,36.71,4.33,53.92,11.23,6.36,2.55,40.64,22.14,92.09,158.12,35.09,92.74,19.84,223.75,9,243.83-10.68,12.75-27.26,16.71-31.86,18.21,0,0,64.64,53.72,91.53,20.04,32.35-40.52,48.29-199.01,6.15-310.39-45.36-119.89-88.93-184.74-137.13-204.06-16.66-6.68-33.56-8.96-48.87-8.96"/><path id="path4778" fill-rule="nonzero" fill="#58332d" d="M4698.5,8577.9c-22.9-1122-951-2013-2073-1990.2-1122,22.9-2013,951-1990.2,2073,22.863,1122,950.97,2013,2073,1990.2,1122-22.9,2013-950.98,1990.1-2073"/><path id="path4780" fill-rule="nonzero" fill="#2f1d1a" d="m4609.2,9218.1c0.89-37.91,1.64-75.83,2.31-113.72-1.85-48.5-14.78-92.41-16.63-140.9-4.86-80.94-26.15-157.71-41.7-239.43-63.85-230.3-166.66-441.93-268.71-664.26-217.4-483.24-737.11-725.17-1255.6-687.64-48.5,1.85-102.33,3.31-151.21,10.51-331.06,45.78-634.64,82.81-939.46,211.11-44.31,18.27-88.63,36.55-133.32,60.16-268.58,147.03-470.02,331.19-698.94,524.09-50.81,33.92-91.73,79.29-132.64,124.69-227.09,250.41-263.06,553.73-264.73,860.42-44.45-160.3-69.75-328.6-73.29-502.5-22.88-1122,868.16-2050.1,1990.2-2073,1122-22.86,2050.1,868.16,2072.9,1990.2,4.56,222.93-27.01,438.17-89.26,640.21"/><path id="path4782" fill-rule="nonzero" fill="#fcd2a4" d="m4272.6,8110.9c-2.6-327.5,51.7-584.83-16.25-859.1-158.66-640.51-970.26-1082.3-1485.9-1071.8-514.01,10.49-1442.3,565.9-1531.4,1260.1-54.81,427.14-29.13,563.04-26.74,860.43,8.11,1015.6,465.54,1641.6,1341.8,1634.6,876.19-6.98,1726.6-808.46,1718.5-1824.1"/><path id="path4784" fill-rule="nonzero" fill="#f0b085" d="M2554.1,9935c-876.2,7-1333.7-618.9-1341.8-1634.6-2.39-297.39-28.07-433.29,26.74-860.43,13.08-101.99,44.31-200.97,89.65-295.68,9.65,171.97,10,344.06-2.63,517.77,27.51-8.75,45.09-28.96,67.63-43.44,76.6,424.65,197.51,831.02,394.02,1232.1,94.46,178.8,168.71,340.01,274.25,514.23,28.57,50.43,63.66,85.21,97.96,130.69,59.16-296.57,191.98-571.67,345.41-834.54,30.22-46.17,60.04-86.98,95.6-132.74,107.47-148.02,220.67-300.97,391.78-363.74-3.59,123.31-1.82,247.01,5.28,371.09,112.81-147.61,217.26-328.05,374.68-424.08-10.88,149.65-30,425.26-42.15,508.75,84.14-122.83,325.9-229.49,440.17-323.26,171.22-138.02,419.11-265.8,458.35-510.1,28.07-164.51,38.65-252.69,29.31-419.93-1.07-59.17-43.44-198.96-66.27-254.36-22.46-60.73-44.9-121.45-83.78-178.01-19.98-31.1-37.3-64.51-57.48-95.45,95.99,124.53,168.52,263.07,205.51,412.44,67.95,274.27,13.65,531.6,16.25,859.1,8.12,1015.7-842.32,1817.1-1718.5,1824.1"/><g id="g4786"><g id="g4788" clip-path="url(#clipPath194)"><path id="path4790" fill-rule="nonzero" fill="url(#linearGradient7458)" d="m2291,8577.2c-188.44,56.32-312.35,77.07-503.26,29.06-122.12-29.69-236.73-90.72-358.26-136.21-39.09-14.61-80.19-35.99-122.28-54.16l122.73,41.54c159.47,43.73,334.87,84.83,502.04,90.91,141.95,5.15,222.82-48.76,365.68-68.82,22.36-5.49,188.51-58.66,190.28-20.69,1.56,44.28-168.22,109.93-196.93,118.37"/></g></g><g id="g4792"><g id="g4794" clip-path="url(#clipPath210)"><path id="path4796" fill-rule="nonzero" fill="url(#radialGradient7460)" d="m4198.9,7446c14.63-201.26-136.69-376.27-337.94-390.91-201.26-14.62-376.28,136.69-390.9,337.94-14.63,201.27,136.68,376.29,337.93,390.92,201.26,14.62,376.28-136.69,390.91-337.95"/></g></g><g id="g4798"><g id="g4800" clip-path="url(#clipPath226)"><path id="path4802" fill-rule="nonzero" fill="url(#radialGradient7462)" d="m2098,7535c14.62-201.25-136.67-376.27-337.93-390.9s-376.28,136.68-390.91,337.94c-14.61,201.25,136.68,376.27,337.95,390.9,201.25,14.62,376.26-136.68,390.89-337.94"/></g></g><g id="g4804"><g id="g4806" clip-path="url(#clipPath242)"><path id="path4808" fill-rule="nonzero" fill="url(#linearGradient7464)" d="m3342.7,8537c172.77,48.74,262.32,52.04,435.87,5.49,111.03-28.83,213.88-188.11,213.88-188.11-128.55,126.8-169.99,143.27-322.51,151.2-129.42,6.75-204.08-41.34-334.77-57.64-20.46-4.69-172.86-50.84-173.94-16.15-0.77,40.43,155.14,97.92,181.47,105.21"/></g></g><path id="path4810" fill-rule="nonzero" fill="#f0b085" d="m2592.4,7223.4s-3.5-143.87,182.72-148.39c149.15-3.62,189.45,99.29,189.15,140.82-119.06-58.3-248.98-52.7-371.87,7.57"/><path id="path4812" fill-rule="nonzero" fill="#f6827e" d="m3228.6,6850.9s-189.39-82.92-452.21-81.36c-231.72,1.4-434.61,74.32-434.61,74.32s143.78-284.63,445.82-273.75c302.1-10.74,441,280.79,441,280.79"/><path id="path4814" fill-rule="nonzero" fill="#f79896" d="m3228.6,6850.9s-199.16-160.35-461.99-158.8c-231.72,1.41-424.83,151.76-424.83,151.76s154.36-263.28,456.41-252.37c302.09-10.76,430.41,259.41,430.41,259.41"/><path id="path4816" fill-rule="nonzero" fill="#7f4a42" d="m3276,6902.3c-64.81-55-169.06-67.87-250.02-77.67-77.69-9.43-156.05-11.48-233.83-11.87v-0.09c-6.1-0.02-12.18-0.01-18.27-0.04-116.69-0.79-235.98,3.85-349.98,30.52-38.11,8.91-74.99,21.08-110.29,38.11-18.69,9.05-34.33,30.97-54.35,35.54-18.26,4.14,4.32-31.88,7.08-35.41,21.02-26.57,65.46-36.07,96.15-48.55,38.06-15.41,77.57-27.02,117.65-35.84,105.12-23.15,213.66-29.26,321.09-30.93l-0.03,1.41c88.46,5.69,203.09,16.07,221.83,19.12,79.53,12.97,150.94,39.91,225.92,67.41,23.7,8.71,42.75,20.89,53.86,44.47,13.64,28.81-14.44,14.36-26.81,3.82"/><path id="path4818" fill-rule="nonzero" fill="#f6827e" d="m3215.9,6861.3s-139.47,67.79-443.31,67.72c-267.27-0.07-412.72-68.79-412.72-68.79s14.51-18.64,218.2-52.19c202.09-33.26,328.92-19.28,533.08,20.83,65.93,12.96,104.75,32.43,104.75,32.43"/><path id="path4820" fill-rule="nonzero" fill="#f46a67" d="m3215.9,6861.3s-151.13,31.3-454.97,31.24c-267.26-0.07-401.06-32.31-401.06-32.31s14.51-18.64,218.2-52.19c202.09-33.26,328.92-19.28,533.08,20.83,65.93,12.96,104.75,32.43,104.75,32.43"/><path id="path4822" fill-rule="nonzero" fill="#f9b2b3" d="m2955.5,6651.4c1.25-17.23-21.43-32.94-50.66-35.05-29.23-2.13-53.93,10.12-55.18,27.35-1.26,17.26,21.42,32.93,50.65,35.05,29.23,2.13,53.93-10.11,55.19-27.35"/><path id="path4824" fill-rule="nonzero" fill="#f9b2b3" d="m3035.5,6690.2c4.87-16.58-13.97-36.71-42.09-44.97-28.11-8.26-54.86-1.5-59.72,15.08-4.89,16.57,13.97,36.71,42.09,44.96,28.1,8.27,54.84,1.52,59.72-15.07"/><path id="path4826" fill-rule="nonzero" fill="#fbccd1" d="m3074.5,6709.2c3.84-13.09-11.04-28.97-33.23-35.5-22.18-6.51-43.29-1.19-47.13,11.89-3.84,13.09,11.03,28.98,33.22,35.5s43.3,1.19,47.14-11.89"/><path id="path4828" fill-rule="nonzero" fill="#FFF" d="m2982.6,6674c2.68-9.14-7.7-20.27-23.21-24.81-15.51-4.55-30.26-0.83-32.95,8.32-2.68,9.14,7.72,20.24,23.22,24.79,15.5,4.56,30.25,0.84,32.94-8.3"/><path id="path4830" fill-rule="nonzero" fill="#f0b085" d="m1847.7,8279.2s171.21,27.37,339.99-31.83c168.81-59.2,201.23-307.63,173.44-345.01-27.78-37.34-118.22-45.73-173.68-40.87-55.48,4.87-106.6-1.15-106.6-1.15s67.99-20.53,146.38-22.99c78.35-2.47,153.09-44.42,153.09-44.42l31.21,2.39s70.04,413.04-146.62,478.52c-268.02,80.99-417.21,5.36-417.21,5.36"/><path id="path4832" fill-rule="nonzero" fill="#2f1d1a" d="m2424.3,7825.6s-177.78-81.67-423.04-20.27c-245.3,61.37-322.13,140.63-322.13,140.63l-86.63-70.46s125.56-161.86,398.22-211.15c272.67-49.31,454.37,74.36,454.37,74.36l-20.79,86.89"/><path id="path4834" fill-rule="nonzero" fill="#2f1d1a" d="m1658.7,7835.6,37.77-38.7c-11.97-24.67-64.32-76.21-110.29-53.48,37.98,17.34,69.88,43,73.22,70.22-13.78-14.72-84.49-47.09-107-28.96,22.78,12.64,56.25,35.35,58.68,56.26-18.86-9.47-81.6-0.05-101.22,6.7,34.92,2.55,100.8,37.07,107.75,41.34,11.73-35.23,23.34-34.03,41.09-53.38"/><path id="path4836" fill-rule="nonzero" fill="#f0b085" d="m3771.7,8279.2s-171.21,27.37-339.99-31.83c-168.81-59.2-201.23-307.63-173.44-345.01,27.78-37.34,118.22-45.73,173.68-40.87,55.48,4.87,106.61-1.15,106.61-1.15s-68-20.53-146.39-22.99c-78.35-2.47-153.08-44.42-153.08-44.42l-31.22,2.39s-70.04,413.04,146.62,478.52c268.02,80.99,417.21,5.36,417.21,5.36"/><path id="path4838" fill-rule="nonzero" fill="#2f1d1a" d="m3195.2,7825.6s177.77-81.67,423.03-20.27c245.3,61.37,322.13,140.63,322.13,140.63l86.63-70.46s-125.56-161.86-398.22-211.15c-272.66-49.31-454.37,74.36-454.37,74.36l20.8,86.89"/><path id="path4840" fill-rule="nonzero" fill="#2f1d1a" d="m3960.8,7835.6-37.77-38.7c11.97-24.67,64.33-76.21,110.29-53.48-37.98,17.34-69.88,43-73.22,70.22,13.78-14.72,84.49-47.09,107.01-28.96-22.79,12.64-56.25,35.35-58.69,56.26,18.86-9.47,81.6-0.05,101.22,6.7-34.92,2.55-100.79,37.07-107.75,41.34-11.73-35.23-23.33-34.03-41.09-53.38"/><g id="g4842"><g id="g4844" clip-path="url(#clipPath290)"><path id="path4846" fill-rule="nonzero" fill="url(#linearGradient7466)" d="m4525.1,9442.3s-304.28,699.86-1172.5,962.86c-129.58,39.3-836.56,108.1-1162.5,23.7-878.2-227-1362.4-1037.4-1362.4-1037.4-319.99-636.5-358.56-1444.7-156.53-2405.9,253.15-1204.3,1141.3-1014.6,1141.3-1014.6s-89.38,35.55-222.64,110.25c-133.26,74.73-392.91,408-392.91,408l266.8-93.9c266.79-93.91,322.13,18.81,322.13,18.81s-201.98-48.44-467.69,406.68c-165.5,283.51-174.02,796.6-157,1143.2,61.96-139.55,129.05-247.05,182.86-253.63,56.27,391.68,190.14,932.86,392.76,1272.7,107.02,181.98,204.61,356.59,302.28,531.22,36.23,63.89,83.72,126.43,117.61,193.2-67.87-247.83,8.69-521.55,68.06-767.04,91.85-358.84,678.94-754.83,678.94-754.83s-243.9,405-300.96,632.43c-32.79,148.12-9.67,450.54-9.67,450.54s82.93-510.4,270.4-711.34c147.7-179.13,295.44-358.26,504.52-451.62-95.56,189.72-144.02,695.92-144.02,695.92s1099.7-847.1,1115.5-815.09c2.94-347.03-85.65-945.45-262.6-1222-284.01-443.92-483.86-387.29-483.86-387.29s50.67-114.84,321.09-31.91c270.45,82.96,270.45,82.96,270.45,82.96s-273.04-322.45-409.27-391.67c-136.17-69.22-226.92-101.08-226.92-101.08s898.26-165.37,1200.3,1027.7c241.04,952.15,70.29,1830-223.52,2479"/></g></g><g id="g4848"><g id="g4850" clip-path="url(#clipPath306)"><path id="path4852" fill-rule="nonzero" fill="url(#linearGradient7468)" d="m4110.8,8600.6c-58.2,135.48-216.69,172.31-315.7,277.93-156.73,160.56-256.23,346.74-393.13,530.21-41.31,50.73-77.25,101.84-113.59,158.29-11.86,15.27-29.44,35.48-41.29,50.74-66.92,112.59-109.99,233.59-143.04,356.26-5.28,7.31-10.54,14.62-15.75,21.94-113.48-230.13-84.21-489.9-26.46-716.52-227.48,235.14-323.04,551.79-445.56,847.39-44.58-165.41-5.01-341.02-1.52-512.25-184.6,158.5-194.25,419.35-131.82,647.35-9.16,0.2-18.38,0.3-27.53,0.3-194.68-436.22-158.99-958.41,46.44-1405.9,2.29,185.6,45.63,377.38,51.94,558.32,244.16-298.18,366.96-691.33,639.59-956.43-63.59,178.57-152.69,348.03-91.67,547.98,308.55-238.66,830.46-516.96,1148-828.9-5.85,50.77-15,101.52-27.82,152.01-23.41,100.38-77.34,177.05-111.05,271.31"/></g></g><g id="g4854"><g id="g4856" clip-path="url(#clipPath322)"><path id="path4858" fill-rule="nonzero" fill="url(#linearGradient7470)" d="m1393.6,8604.7c112.94,425.41,264.83,870.44,583.87,1185.3-205.53-84.72-362.69-272.92-471.82-467.01-21.77,286.5,80.12,547.3,252.27,758.25-378.63-209.64-500.95-513.68-500.95-513.68-116.25-178.93-213.1-490.78-253.15-749.17,103.12,204.7,231.01,393.9,364.97,582.3-104.43-255.63-66.03-540.92,24.81-795.99"/></g></g><path id="path4860" fill-rule="nonzero" fill="#2f1d1a" d="m2135.1,9391.6c13.97-152.77,54.74-306.69,89.63-450.95,91.85-358.84,678.94-754.83,678.94-754.83s-47.24,78.41-104.96,185.57c-354.34,220.49-575.59,614.43-663.61,1020.2"/><path id="path4862" fill-rule="nonzero" fill="#2f1d1a" d="m2651.9,9009.7c43.95-157.18,113.4-347.05,211.51-452.23,147.7-179.13,295.44-358.26,504.52-451.62-19.83,39.33-37.58,92.23-53.33,151.44-283.78,173-523.41,443.39-662.7,752.41"/><path id="path4864" fill-rule="nonzero" fill="#2f1d1a" d="m1300.2,7878.2c-143.91,235.91-251.08,491.7-315.22,759.75-2.73-63.29,0.036-118.35,9.145-160.71,45.484-223.98,184.59-617.86,297.06-733.82,18.52-19.1,36.33-30.91,52.86-32.95,3.7,25.88,7.78,52.41,12.18,79.49-19.31,29.05-37.92,58.54-56.03,88.24"/><g id="g4866"><g id="g4868" clip-path="url(#clipPath344)"><path id="path4870" fill-rule="nonzero" fill="url(#linearGradient7472)" d="m1175.6,6791.6c-120.37,264.94-141.42,549.45-191.42,836.78-12.203-125.42-15.676-261.45-37.496-385.94-114.2,127.97-86.36,514.87-81.004,670.18-147.12-530.56-39.602-1009.1,164.77-1311.5-32.265,168.75-82.012,358.62-84.433,534.2,46.66-121.41,121.29-255.28,229.58-343.75"/></g></g><g id="g4872"><g id="g4874" clip-path="url(#clipPath360)"><path id="path4876" fill-rule="nonzero" fill="url(#linearGradient7474)" d="m4191.8,6730.2c131.06,259.81,163.67,543.23,225.36,828.29,7.06-125.83,4.96-261.87,21.75-387.16,119.29,123.21,107.24,510.93,108.2,666.34,125.38-536.12-1.55-1009.9-218.06-1303.7,39.13,167.26,96.56,354.97,106.16,530.29-51.59-119.4-131.61-250.13-243.41-334.1"/></g></g><path id="path4878" fill-rule="nonzero" fill="#FFF" d="m3811.8,4922.1c0.93-279.32,25.61-804.33,25.61-804.33l685.33,32.82s-44.49,508.74-128.47,855.37c-83.97,346.62-379.48,520.07-454.27,536.22-74.78,16.15-129.12-340.77-128.2-620.08"/><path id="path4880" fill-rule="nonzero" fill="#f2f2f2" d="m4522.7,4150.6s-44.49,508.74-128.47,855.37c-54.24,223.91-196.72,375.46-310.99,459.12,270.1-345.44,391.98-792.41,341.09-1225,0-30-100-40-160-60-144.1-37.92-288.18-18.37-427.91-41.58,0.61-13.31,0.95-20.68,0.95-20.68l685.33,32.82"/><g id="g4882"><g id="g4884" clip-path="url(#clipPath380)"><path id="path4886" fill-rule="nonzero" fill="url(#linearGradient7476)" d="m1749.8,3964.8s95.89,40.45,175.5,57.22c79.62,16.77,150.18,25.23,161.36-33.47s-93.67-139.84-121.63-159.41c-27.95-19.56-157.11-67.09-157.11-67.09s-27.38,68.27-30.17,120.79c-2.8,52.52-27.95,81.96-27.95,81.96"/></g></g><path id="path4888" fill-rule="nonzero" fill="#f0b085" d="m1923.1,4008.7c-80.01-14.79-185.94-26.48-185.94-26.48s8.8-10.38,16.58-29.7c106.76,9.91,213.53,46.77,320.29,53.45-29.86,23.39-84.44,15.03-150.93,2.73"/><path id="path4890" fill-rule="nonzero" fill="#fcd2a4" d="m1839.2,4715.2c-20.72-19.98-58.71-55.91,0-109.02,33.79-30.57,156.53,5.6,264.71,16.55,71.91,7.29,125.36,57.15,118.24,78.5-16.77,50.31-357.94,38.12-382.95,13.97"/><path id="path4892" fill-rule="nonzero" fill="#fcd2a4" d="m1965,4625.8c-19.57-22.36-30.75-36.33-47.52-83.86-16.77-47.51-69.88-198.46-69.88-198.46s-114.61-78.27-162.13-69.89-65.61,29.92-65.61,29.92,54.43,107.05,101.95,207.68c47.52,100.64,84.81,194.55,117.41,204.06,32.59,9.52,125.78-89.45,125.78-89.45"/><path id="path4894" fill-rule="nonzero" fill="#f0b085" d="m1733,4329.4s266.49,51.25,344.76,20.5c78.27-30.74,74.54-132.31,41-149.08s-371.78-50.31-371.78-50.31-27.95,55.86-36.34,89.45c-8.39,33.58,22.36,89.44,22.36,89.44"/><path id="path4896" fill-rule="nonzero" fill="#fcd2a4" d="m1709.2,4315.5s253.14,56,331.41,25.24c78.27-30.74,38.49-121.22,4.95-137.99-33.55-16.77-319.54-35.41-319.54-35.41s-6.98,39.1-15.37,72.69c-8.39,33.58-1.45,75.47-1.45,75.47"/><path id="path4898" fill-rule="nonzero" fill="#fcd2a4" d="m1660.3,4340.6s-41.93-29.22-61.49-67.72c-19.57-38.51-36.34-91.61-41.94-200.63-5.59-109.02-58.7-310.29-92.24-346.63s-33.54-36.34-33.54-36.34-2.8-139.76,53.11-206.85c55.9-67.09,142.45-100.62,224.97-22.36,82.52,78.27,121.65,184.49,127.24,240.4s0,72.67,0,72.67,0,92.25-11.18,206.86-125.79,366.19-164.93,360.6"/><path id="path4900" fill-rule="nonzero" fill="#fcd2a4" d="m1759.5,3935.3s101.58,36.73,183.09,41.94c81.2,5.18,86.77,29.46,97.95-29.24s-55.34-87.44-86.77-100.74c-42.46-17.99-158-50.85-158-50.85s-57.24,34.07-60.03,86.6c-2.8,52.52,23.76,52.29,23.76,52.29"/><g id="g4902"><g id="g4904" clip-path="url(#clipPath410)"><path id="path4906" fill-rule="nonzero" fill="url(#linearGradient7478)" d="m1737.7,4169.9s280.4,10.98,330.71,0c50.32-10.96,78.27-69.67,78.27-97.62s-47.12-27.06-93.96-36.44c-53.21-10.65-289-83.76-289-83.76s-54.56,39.13-54.56,111.36c0,54.35,28.54,106.46,28.54,106.46"/></g></g><path id="path4908" fill-rule="nonzero" fill="#fcd2a4" d="m1719,4150.6s196.63,28.66,246.94,17.68c50.32-10.97,33.58-66.14,33.58-94.1,0-27.95-10.07-28.07-74.26-52.17-44.71-16.79-183.89-61.49-183.89-61.49s-32.2,30.74-32.2,102.97c0,54.35,9.83,87.11,9.83,87.11"/><path id="path4910" fill-rule="nonzero" fill="#ec008c" d="m2078.2,4648.6s106.23,1.45,136.97,16.54c30.75,15.11,29.36,47.25,0,59.84-29.34,12.58-106.02,12.05-121.59,11.14-15.58-0.91-27.96-29.84-29.35-43.55-1.4-13.71,13.97-43.97,13.97-43.97"/><g id="g4912"><g id="g4914" clip-path="url(#clipPath430)"><path id="path4916" fill-rule="nonzero" fill="url(#linearGradient7480)" d="m1987.5,3860.3c-139.98-41.04-212.19-56.81-230.81-54.95,50.76-58.7-40.53-320.06-163.52-375.97-6.41-3.84-13.15-6.88-20.1-9.36,42.58-12.42,89.94-3.62,136.05,40.11,82.52,78.27,121.65,184.49,127.24,240.4s0,72.67,0,72.67,151.84,62.46,151.14,87.1"/></g></g><g id="g4918"><g id="g4920" clip-path="url(#clipPath446)"><path id="path4922" fill-rule="nonzero" fill="url(#linearGradient7482)" d="m2686.2,4404.9s55.91-46.38,92.24-101.46c36.35-55.08,47.52-186.46,72.69-253.55,25.15-67.09,125.78-405.32,125.78-405.32s-11.18-103.43-55.91-164.92c-44.72-61.5-204.05-123-282.32-100.64-78.27,22.37-156.54,229.22-184.5,279.53-27.95,50.32-64.29,164.94-64.29,164.94s123.86,418.69,154.21,464.02c30.33,45.32,142.1,117.4,142.1,117.4"/></g></g><path id="path4924" fill-rule="nonzero" fill="#fcd2a4" d="m2686.2,4404.9s55.91-46.38,92.24-101.46c36.35-55.08,47.52-186.46,72.69-253.55,25.15-67.09,125.78-405.32,125.78-405.32s-11.18-103.43-55.91-164.92c-44.72-61.5-122.52-87.21-200.79-64.86-78.26,22.37-168.19,207.41-196.14,257.74-11.2,20.17-41.63,58.32-53.11,89.44-13.89,37.67,60.1,127.64,60.1,127.64s88.46,317.18,118.8,362.5,36.34,152.79,36.34,152.79"/><path id="path4926" fill-rule="nonzero" fill="#fcd2a4" d="m2529.6,4642.5c-44.3,22.16-232.01-22.35-262.76-33.54-30.75-11.18-99.36-41.93-44.09-78.27,55.27-36.33,278.89-19.57,292.87-19.57s47.52,114.61,13.98,131.38"/><path id="path4928" fill-rule="nonzero" fill="#fcd2a4" d="m2482.1,4541.9s34.77-81.08,61.96-136.97c27.18-55.89,7.92-86.66,72.21-109.01,13.02-4.54,36.37-37.55,47.52-37.48,43.96,0.27,60.37,77.09,55.91,107.88-5.59,38.61-44.72,136.45-83.86,175.58-39.13,39.14-80.44,95.01-106.22,100.63-25.78,5.63-47.52-100.63-47.52-100.63"/><path id="path4930" fill-rule="nonzero" fill="#f0b085" d="m2663.8,4258.4s-210.58,82.37-263.69,82.28c-53.11-0.08-264.62-23.49-328.91-41.14-64.3-17.65-131.49-42.48-85.34-79.13,46.14-36.64,305.98-47.53,387.14-69.89,81.15-22.37,237.69-87.11,237.69-87.11s72.68,36.79,86.66,87.11c13.98,50.31-33.55,107.88-33.55,107.88"/><path id="path4932" fill-rule="nonzero" fill="#fcd2a4" d="m2663.8,4258.4s-210.58,82.37-263.69,82.28c-53.11-0.08-264.62-23.49-328.91-41.14-64.3-17.65-44.55-30.84,1.59-67.49,46.15-36.64,244.31-34.93,325.46-57.29,81.16-22.37,212.44-111.35,212.44-111.35s95.75,1.24,109.73,51.55-56.62,143.44-56.62,143.44"/><path id="path4934" fill-rule="nonzero" fill="#fcd2a4" d="m2512.9,3889.6c-42.53,26.98-159.33,28.91-204.06,48.47-44.73,19.57-120.2,17.67-128.58-48.47-8.39-66.13,248.78-136.02,290.71-127.64,41.93,8.39,128.38,72.79,41.93,127.64"/><path id="path4936" fill-rule="nonzero" fill="#f0b085" d="m2610.7,4063.4s-213.93,88.67-324.12,102.07c-110.2,13.4-265.69,51.3-285.26,0-19.56-51.3,115.81-120.05,221.47-149.14,142.17-39.13,256.31-103.52,283.12-122.9s107.59-17.56,124.36,55.47c16.78,73.02-19.57,114.5-19.57,114.5"/><path id="path4938" fill-rule="nonzero" fill="#fcd2a4" d="m2610.7,4063.4s-213.93,88.67-324.12,102.07c-110.2,13.4-265.69,51.3-285.26,0-19.56-51.3,123.63-106.08,229.29-135.16,142.17-39.14,273.61-121.34,300.43-140.72,26.81-19.37,114.86-56.77,131.63,16.26s-51.97,157.55-51.97,157.55"/><path id="path4940" fill-rule="nonzero" fill="#ec008c" d="m2340.8,4563.9c1.9,18.28-14.98,47.95-37.31,48.94-15.11,0.67-145.36-13.38-141.12-59.77,4.22-46.4,123.71-46.63,147.49-31.02,10.68,7.03,29.39,26.93,30.94,41.85"/><path id="path4942" fill-rule="nonzero" fill="#ec008c" d="m2129.8,4253.2c1.9,18.29-14.98,47.94-37.31,48.94-15.11,0.68-145.36-13.37-141.13-59.77,4.24-46.39,123.72-46.64,147.49-31.02,10.69,7.03,29.4,26.92,30.95,41.85"/><path id="path4944" fill-rule="nonzero" fill="#ec008c" d="m2136.8,4115.6c8.21,16.44,2.84,50.15-17.72,58.94-13.9,5.95-140.77,38.6-153.13-6.32-12.35-44.92,99.41-87.17,127.15-80.92,12.48,2.82,37,14.88,43.7,28.3"/><path id="path4946" fill-rule="nonzero" fill="#ec008c" d="m2307.3,3871.2c8.2,16.43,2.83,50.14-17.73,58.93-13.9,5.95-125.83,39.86-138.18-5.06-12.36-44.92,84.46-88.42,112.21-82.17,12.48,2.82,36.99,14.87,43.7,28.3"/><path id="path4948" fill-rule="nonzero" fill="#fcd2a4" d="m1453.8,3713.9s-109.36-77.72-251.93-178.35c-142.56-100.64-441.66-444.47-271.14-654.11,170.52-209.66,394.14-190.09,556.26-16.77,162.13,173.31,150.95,382.96,178.9,471.01,27.96,88.05,43.28,124.39,43.28,124.39l-255.37,253.83"/><g id="g4950"><g id="g4952" clip-path="url(#clipPath488)"><path id="path4954" fill-rule="nonzero" fill="url(#linearGradient7484)" d="m1672.1,3497c-2.97-6.21-17.32-42.18-17.32-48.39-44.71-324.25-218.09-768.38-609.43-578.3-33.54,11.19-78.269,22.37-100.63,55.91-26.536,33.16-48.028,69.33-65.008,107.23-0.907-54.41,13.949-106.35,51.035-151.95,170.52-209.66,394.14-190.09,556.26-16.77,162.13,173.31,150.95,382.96,178.9,471.01,27.96,88.05,43.28,124.39,43.28,124.39l-37.09,36.87"/></g></g><path id="path5208" fill-rule="nonzero" fill="#f24daf" d="m1458.2,5896.4c-27.47-12.34-50.24-40.13-52.8-70.91-29.48,9.25-63.81-1.35-85.6-22.14-22.43-21.39-31.57-53.58-8.47-86.04,29.69-43.64,204.82-59.94,205.7-57.86,2.25,0.02,53.25,168.35,24.04,212.33-21.34,33.63-54.59,37.31-82.87,24.62"/><path id="path5210" fill-rule="nonzero" fill="#f24daf" d="m458.73,7295c-35.867-4.4-71.824-28.19-85.672-62.57-30.519,21.05-73.632,21.08-105.98,4.98-33.301-16.58-55.195-50.24-40.227-95.63,18.575-60.56,213.56-141.35,215.29-139.28,2.598-0.77,120.74,174.13,102.85,234.9-12.527,46.12-49.356,62.12-86.27,57.6"/><path id="path5212" fill-rule="nonzero" fill="#f24daf" d="m550.67,9351.8c-38.988,19-90.719,18.55-127.12-7.01-16.969,41.12-60.344,69.33-103.42,74.25-44.352,5.07-88.391-14.5-102.97-69.97-20.879-73.1,122.6-281.8,125.7-280.85,2.11-2.48,235.3,96.37,256.99,169.23,17.524,54.61-9.086,94.77-49.191,114.35"/><path id="path5214" fill-rule="nonzero" fill="#f24daf" d="m1682.2,10771c-30.54,30.8-79.52,47.5-122.32,35.4-2.46,44.4-34.1,85.3-73.15,104.2-40.19,19.4-88.23,15.4-120.28-32.1-43.82-62.2,22.81-306.5,26.05-306.6,1.18-3.1,253.91,13.3,298.43,75,34.55,45.7,22.68,92.4-8.73,124.1"/><path id="path5216" fill-rule="nonzero" fill="#f24daf" d="m3449.1,11073c-20.44,38.3-62.61,68.2-107.09,68.9,10.36,43.2-8.23,91.5-40.25,120.7-32.95,30.2-80.11,40.1-124.43,3.7-59.78-46.9-65.91-300.1-62.84-301.2,0.26-3.2,247.12-59.9,307.41-13.6,46.22,34,48.21,82.1,27.2,121.5"/><path id="path5218" fill-rule="nonzero" fill="#f24daf" d="m5339,10708c-20.44,38.2-62.61,68.2-107.09,68.8,10.37,43.3-8.23,91.6-40.24,120.8-32.95,30.1-80.11,40.1-124.44,3.7-59.77-47-65.9-300.2-62.83-301.2,0.25-3.3,247.11-59.9,307.4-13.6,46.22,34,48.21,82.1,27.2,121.5"/><path id="path5234" fill-rule="nonzero" fill="#f24daf" d="m1967.3,5256.6c51.14,0,95.67-27.98,119.35-69.4-14.83,59.92-68.81,104.4-133.32,104.4-75.94,0-137.5-61.56-137.5-137.5,0-24.8,6.66-48,18.15-68.09-2.63,10.62-4.18,21.66-4.18,33.09,0,75.94,61.56,137.5,137.5,137.5"/><path id="path5236" fill-rule="nonzero" fill="#f24daf" d="m1939.1,5368.7c65.3,0,122.16-35.73,152.4-88.63-18.94,76.52-87.87,133.32-170.23,133.32-96.97,0-175.59-78.62-175.59-175.58,0-31.68,8.51-61.31,23.18-86.95-3.36,13.57-5.34,27.66-5.34,42.25,0,96.98,78.61,175.59,175.58,175.59"/><path id="path5238" fill-rule="nonzero" fill="#f24daf" d="m1893.9,5509.9c72.77,0,136.14-39.82,169.85-98.78-21.11,85.29-97.93,148.59-189.73,148.59-108.07,0-195.68-87.62-195.68-195.68,0-35.31,9.48-68.32,25.82-96.91-3.74,15.12-5.94,30.83-5.94,47.1,0,108.07,87.61,195.68,195.68,195.68"/></g></g></g></svg>
