<?xml version="1.0" encoding="UTF-8" standalone="no"?>
<!-- Created with Inkscape (http://www.inkscape.org/) -->
<svg id="svg2" xmlns:rdf="http://www.w3.org/1999/02/22-rdf-syntax-ns#" xmlns="http://www.w3.org/2000/svg" xml:space="preserve" height="1463.9" width="642.09" version="1.1" xmlns:cc="http://creativecommons.org/ns#" xmlns:dc="http://purl.org/dc/elements/1.1/"><metadata id="metadata8"><rdf:RDF><cc:Work rdf:about=""><dc:format>image/svg+xml</dc:format><dc:type rdf:resource="http://purl.org/dc/dcmitype/StillImage"/><dc:title/></cc:Work></rdf:RDF></metadata><defs id="defs6"><clipPath id="clipPath512" clipPathUnits="userSpaceOnUse"><path id="path514" d="m10913,556.93c-9.4,130.1-14.5,233.6-14.5,321.07,0,360.61-122.7,489.18-122.7,489.18l-601.2-7.19c71.8-405.78,268.9-861.1,738.4-803.06"/></clipPath><linearGradient id="linearGradient516" gradientUnits="userSpaceOnUse" gradientTransform="matrix(73.8379,0,0,-90.8281,1017.43,138.718)"><stop id="stop518" stop-color="#133242" offset="0"/><stop id="stop520" stop-color="#1a485d" offset="1"/></linearGradient><clipPath id="clipPath530" clipPathUnits="userSpaceOnUse"><path id="path532" d="m8564.3,669.99c265.87,132.94,276.67,436.67,351.28,697.19h-769.71s-125.27-206.16-125.53-489.18c-0.07-77.324-2.51-171.39-7.83-317.95,16.94-7.18,49.98-17.739,68.58-20.063,180-20,323.21,50,483.21,130"/></clipPath><linearGradient id="linearGradient534" gradientUnits="userSpaceOnUse" gradientTransform="matrix(90.3076,0,0,-88.7188,801.255,138.718)"><stop id="stop536" stop-color="#1a485d" offset="0"/><stop id="stop538" stop-color="#133242" offset="1"/></linearGradient><clipPath id="clipPath554" clipPathUnits="userSpaceOnUse"><path id="path556" d="m11527,3692.5c-78.2,0-218-39.39-273.9,27.7-100.7,111.81-145.4,257.17-178.9,413.71-33.6,134.17,22.3,245.99,156.5,245.99,159.3,6.38,304.1,52.75,430.2,130.74-61.3,373.9-133,982.82-210.3,1166.3-89.4,212.42-417.4,286.98-417.4,286.98l-171.5-1215s70.8-684.63,178.9-900.81c108.1-216.19,201.3-366.4,328-396.22,126.8-29.82,492-104.37,492-104.37s-15.5-13.19-33.1,97.37c-19.5,36.09-149.6,256.54-300.5,247.66"/></clipPath><linearGradient id="linearGradient558" gradientUnits="userSpaceOnUse" gradientTransform="matrix(-115.727,-31.3077,-72.8694,269.356,1211.66,338.715)" x1="0.006135"><stop id="stop560" stop-color="#f6c98a" offset="0"/><stop id="stop562" stop-color="#e39854" offset="1"/></linearGradient><clipPath id="clipPath572" clipPathUnits="userSpaceOnUse"><path id="path574" d="m8409,4957.6c-7.44,178.9-134.16,1066-134.16,1066s-477.09-96.92-603.8-346.62c-89.87-177.09-179.74-790.99-243.02-1332.5,200.03-173.51,540.79-18.14,727.54-132.27,167.72-100.64,33.54-413.71-67.09-559.07-111.81-145.36-436.07-11.18-536.7-212.45-72.85-156.9-123.22-322.24-161-491.77l697.7,517.87s119.28,335.43,186.37,581.42c67.07,245.99,104.35,566.53,104.35,566.53s37.27,163.98,29.81,342.88"/></clipPath><linearGradient id="linearGradient576" gradientUnits="userSpaceOnUse" gradientTransform="matrix(101.922,0,0,-311.467,739.077,604.359)" x1="0.006135"><stop id="stop578" stop-color="#f6c98a" offset="0"/><stop id="stop580" stop-color="#e39854" offset="1"/></linearGradient><clipPath id="clipPath598" clipPathUnits="userSpaceOnUse"><path id="path600" d="m9038.9,6068.3c123-22.36,246-44.72,368.98-44.72-57.91,193.06-74.22,386.12-113.54,579.18-8.41-61.48-23.8-111.42-50.45-131.93-96.9-74.55-645.3-395.07-645.3-395.07l34.29-27.06c131.31,30.43,264.69,47.87,406.02,19.6"/></clipPath><linearGradient id="linearGradient602" gradientUnits="userSpaceOnUse" gradientTransform="matrix(26.8351,-79.0149,-82.2146,-27.9218,930.757,662.595)"><stop id="stop604" stop-color="#f6c98a" offset="0"/><stop id="stop606" stop-color="#e39854" offset="1"/></linearGradient><clipPath id="clipPath614" clipPathUnits="userSpaceOnUse"><path id="path616" d="m10070,6463.4c-6.9,12.6-13,28.76-18.3,47.3-2.6-176.5-36.2-358.34-95.95-520.63,169.85,48.51,360.65,63.37,545.15,93.84l54.9,81.32s-420,178.9-485.8,298.17"/></clipPath><linearGradient id="linearGradient618" gradientUnits="userSpaceOnUse" gradientTransform="matrix(60.0059,0,0,-56.0635,995.575,653.068)"><stop id="stop620" stop-color="#f6c98a" offset="0"/><stop id="stop622" stop-color="#e39854" offset="1"/></linearGradient><clipPath id="clipPath644" clipPathUnits="userSpaceOnUse"><path id="path646" d="m8099.6,2926.4c-173.65-33.13-346.61-55.91-514.34-33.55-69.88,9.98-148.65,11.16-220.43,43.09,0.17-1.96,0.31-3.98,0.53-5.82,13.05-103.85,477.07-156.54,797.61-119.28,320.53,37.26,1058.5,335.46,1058.5,335.46l-15.92,59.07c-353.2-136.1-709-203.3-1106-279"/></clipPath><linearGradient id="linearGradient648" gradientUnits="userSpaceOnUse" gradientTransform="matrix(153.184,10.6222,2.60434,-37.5573,729.595,309.297)" x1="0.006135"><stop id="stop650" stop-color="#f6c98a" offset="0"/><stop id="stop652" stop-color="#e39854" offset="1"/></linearGradient><clipPath id="clipPath662" clipPathUnits="userSpaceOnUse"><path id="path664" d="m10560,3128-3.9-11.55s193.8-216.17,603.8-268.35c410-52.17,678.3,260.89,700.7,387.61,1.6,9.27,2.7,19.42,3.4,30.15-256.5-456.98-904.8-382.16-1304-137.86"/></clipPath><linearGradient id="linearGradient666" gradientUnits="userSpaceOnUse" gradientTransform="matrix(130.787,0,0,-50.9932,1055.58,328.585)" x1="0.006135"><stop id="stop668" stop-color="#f6c98a" offset="0"/><stop id="stop670" stop-color="#e39854" offset="1"/></linearGradient><clipPath id="clipPath696" clipPathUnits="userSpaceOnUse"><path id="path698" d="m8963,8406.5c14.61-201.25-136.68-376.27-337.94-390.9-201.25-14.62-376.27,136.68-390.9,337.94-14.63,201.25,136.67,376.27,337.93,390.9,201.27,14.62,376.28-136.68,390.91-337.94"/></clipPath><radialGradient id="radialGradient700" gradientUnits="userSpaceOnUse" cy="0" cx="0" gradientTransform="matrix(36.4419,2.64892,2.64892,-36.4419,859.855,838.004)" r="1"><stop id="stop702" stop-color="#f79896" offset="0"/><stop id="stop704" stop-color="#f6c98a" offset="1"/></radialGradient><clipPath id="clipPath712" clipPathUnits="userSpaceOnUse"><path id="path714" d="m11111,8406.5c14.6-201.25-136.7-376.27-338-390.9-201.2-14.62-376.2,136.68-390.9,337.94-14.6,201.25,136.7,376.27,338,390.9,201.2,14.62,376.2-136.68,390.9-337.94"/></clipPath><radialGradient id="radialGradient716" gradientUnits="userSpaceOnUse" cy="0" cx="0" gradientTransform="matrix(36.4414,2.64889,2.64889,-36.4414,1074.66,838.003)" r="1"><stop id="stop718" stop-color="#f79896" offset="0"/><stop id="stop720" stop-color="#f6c98a" offset="1"/></radialGradient><clipPath id="clipPath760" clipPathUnits="userSpaceOnUse"><path id="path762" d="m10705,11033s-164,59.7-201.3,111.8c141.7,119.3,608.3,223.7,608.3,223.7s-301.3,170.5-966.1,201.2c-664.75,30.7-1185.2-283.2-1311.9-410,7.44,111.9,119.25,253.5,193.81,335.5-231.1-22.4-514.35-335.5-626.16-529.3-89.45-156.5-275.81-737.9-275.81-857.2,238.54,305.6,484.53,663.4,872.14,805.1-22.36-97-96.9-268.4-96.9-268.4s130.9,110.3,559.07,193.8,1244.8,193.8,1244.8,193.8"/></clipPath><linearGradient id="linearGradient764" gradientUnits="userSpaceOnUse" gradientTransform="matrix(298.62,0,0,-153.175,812.574,1162.02)"><stop id="stop766" stop-color="#926255" offset="0"/><stop id="stop768" stop-color="#58332d" offset="1"/></linearGradient><clipPath id="clipPath780" clipPathUnits="userSpaceOnUse"><path id="path782" d="m10121,3828.9c60,44.41,157.9,37.56,247.4,24.08-7.5-49.99-15.5-100.16-22.9-146.48-27.7-175.18-56.4-367.11-189.3-351.08-132.9,16.04-316.83,24.05-344.23,30.68-27.4,6.62-66.66,26.56-79.51,110.63-6.3,41.21,0.17,167.23,9.05,291.53,127.8-38.01,262.19-41.54,379.49,40.64"/></clipPath><linearGradient id="linearGradient784" gradientUnits="userSpaceOnUse" gradientTransform="matrix(-10.7184,-50.1566,65.4518,-13.987,977.861,405.712)"><stop id="stop786" stop-color="#524f4b" offset="0"/><stop id="stop788" stop-color="#231f20" offset="1"/></linearGradient><clipPath id="clipPath798" clipPathUnits="userSpaceOnUse"><path id="path800" d="m9519.7,3638.2c-18.64,74.53-14.92,156.54-41,227.35l-47.27,91.15c-174.12-167.41-11.54-436.88-66.41-623.43-33.87-118.51-176.89-169.34-315.66-152.75,14.35-13.66,32.86-24.23,56.63-30.58,44.72-14.9,67.09-7.45,115.54-3.72,52.18,3.72,100.63-14.91,152.82-3.73,96.89,22.36,160.25,89.44,182.61,182.64,22.37,108.07-7.45,212.44-37.26,313.07"/></clipPath><linearGradient id="linearGradient802" gradientUnits="userSpaceOnUse" gradientTransform="matrix(62.9869,-22.5491,-30.7146,-85.7958,934.229,400.989)" x1="0.006135"><stop id="stop804" stop-color="#f6c98a" offset="0"/><stop id="stop806" stop-color="#e39854" offset="1"/></linearGradient><clipPath id="clipPath814" clipPathUnits="userSpaceOnUse"><path id="path816" d="m9787.1,3374.9c-14.06,7.44-164.9-6.15-229.64,7.96-59.15,11.23-121.12,19.69-180.25,28.14-38.63,5.16-131.51,24.49-153.83-71.16-14.2-60.88,60.89-109.06,108.77-120.31,70.4-19.73,137.98-11.3,211.21,0,56.34,5.61,109.83,8.44,166.17,11.25,47.86,2.81,137.84,112.26,77.57,144.12"/></clipPath><linearGradient id="linearGradient818" gradientUnits="userSpaceOnUse" gradientTransform="matrix(43.6072,0.559067,0.355978,-27.7663,946.67,345.832)" x1="0.006135"><stop id="stop820" stop-color="#f6c98a" offset="0"/><stop id="stop822" stop-color="#e39854" offset="1"/></linearGradient><clipPath id="clipPath834" clipPathUnits="userSpaceOnUse"><path id="path836" d="m9816.5,3501.1c-92.93,22.54-164.49,60.58-257.42,83.12-76.02,19.7-170.6,26.71-249.48,35.16-36.6,0-139.13,11.21-150.56-74.1-2.83-50.68,46.37-100.5,85.82-117.41,70.39-30.95,166.66-36.03,239.87-44.48,64.78-5.61,123.41-11.81,188.14-11.81,50.7,0,121.13-5.64,168.98,8.45,84.49,25.34,39.43,104.17-25.35,121.07"/></clipPath><linearGradient id="linearGradient838" gradientUnits="userSpaceOnUse" gradientTransform="matrix(58.143,-5.03161,-2.25152,-26.0175,948.283,362.448)" x1="0.006135"><stop id="stop840" stop-color="#f6c98a" offset="0"/><stop id="stop842" stop-color="#e39854" offset="1"/></linearGradient><clipPath id="clipPath856" clipPathUnits="userSpaceOnUse"><path id="path858" d="m9901,3634.7c-59.42,72.99-132.78,114.96-225.76,131.52-101.79,15.28-204.91,29.18-308.41,30.4-45.5,0.54-109.31,14.53-136.65-6.7-27.34-21.24-36.87-62.42-36.66-121.61,0.26-70,138.75-69.49,195.11-77.73,92.99-13.76,142.88-5.28,234.79-25.03,73.71-15.84,255.74-113.99,308.96-40.55,22.41,33.87-11.57,84.43-31.38,109.7"/></clipPath><linearGradient id="linearGradient860" gradientUnits="userSpaceOnUse" gradientTransform="matrix(59.8183,-11.74,-5.9922,-30.5318,952.851,381.711)" x1="0.006135"><stop id="stop862" stop-color="#f6c98a" offset="0"/><stop id="stop864" stop-color="#e39854" offset="1"/></linearGradient><clipPath id="clipPath878" clipPathUnits="userSpaceOnUse"><path id="path880" d="m10391,3599c30.9,70.34,41,151.82,78.7,217.23l61.9,81.93c143.5-194.29-62-432.61-39.3-625.74,13.5-122.51,145.9-196.65,285.5-203.6-16.4-11.05-36.4-18.36-61-20.63-46.5-7.17-67.3,3.93-114.5,15.74-50.8,12.44-101.7,2.2-151.2,21.99-91.8,38.33-143,115.11-149.4,210.72-3.9,110.29,43,208.18,89.3,302.36"/></clipPath><linearGradient id="linearGradient882" gradientUnits="userSpaceOnUse" gradientTransform="matrix(-65.8822,-11.6474,15.8646,-89.7365,1062.88,393.56)" x1="0.006135"><stop id="stop884" stop-color="#f6c98a" offset="0"/><stop id="stop886" stop-color="#e39854" offset="1"/></linearGradient><clipPath id="clipPath894" clipPathUnits="userSpaceOnUse"><path id="path896" d="m10084,3384.4c15.1,4.96,161.5-33.78,227.7-30.74,60.2,1.15,122.7-0.94,182.4-2.54,39-1.39,133.8,2.05,139.7-95.98,3.8-62.41-78.3-97.29-127.4-100.33-72.7-7.64-137.9,12.04-208.2,35.47-54.6,15-106.9,26.77-161.9,39.02-46.7,10.8-117.1,133.8-52.3,155.1"/></clipPath><linearGradient id="linearGradient898" gradientUnits="userSpaceOnUse" gradientTransform="matrix(-42.8941,7.87714,-5.01583,-27.3131,1041.34,341.277)" x1="0.006135"><stop id="stop900" stop-color="#f6c98a" offset="0"/><stop id="stop902" stop-color="#e39854" offset="1"/></linearGradient><clipPath id="clipPath914" clipPathUnits="userSpaceOnUse"><path id="path916" d="m10076,3513.7c95.4,6.61,172.3,32.08,267.7,38.69,78.3,6.65,172.7-2.32,251.9-7.23,36.1-6.17,139-12.35,136-98.35-5.8-50.44-62.6-91.29-104.4-101.33-74.6-18.68-170.3-7.52-243.9-3.56-64.8,5.37-123.6,9.09-187.5,19.97-49.9,8.52-120.3,14.79-165.1,36.71-79.04,39.18-21.4,109.32,45.3,115.1"/></clipPath><linearGradient id="linearGradient918" gradientUnits="userSpaceOnUse" gradientTransform="matrix(-58.1619,4.8078,-2.1514,-26.0263,1042.54,357.928)" x1="0.006135"><stop id="stop920" stop-color="#f6c98a" offset="0"/><stop id="stop922" stop-color="#e39854" offset="1"/></linearGradient><clipPath id="clipPath936" clipPathUnits="userSpaceOnUse"><path id="path938" d="m10015,3659.6c70.8,61.97,150.2,91,244.7,91.72,102.9-2.04,206.9-5.66,309.1-21.84,44.9-7.12,110.2-4.04,133.6-29.57s25.8-67.72,15.7-126.04c-12-68.96-148.5-45.19-205.4-43.84-94,2.05-141.8,18.8-235.7,14.76-75.3-3.23-271.2-69.4-311.36,11.93-16.41,37.15,25.58,81.29,49.36,102.88"/></clipPath><linearGradient id="linearGradient940" gradientUnits="userSpaceOnUse" gradientTransform="matrix(-60.9412,-1.52382,0.777747,-31.104,1041.28,377.682)" x1="0.006135"><stop id="stop942" stop-color="#f6c98a" offset="0"/><stop id="stop944" stop-color="#e39854" offset="1"/></linearGradient></defs><g id="g10" transform="matrix(1.25,0,0,-1.25,-891.23238,1463.9134)"><g id="g12" transform="scale(0.1,0.1)"><path id="path500" fill-rule="nonzero" fill="#1a485d" d="m10962,0c-29.6,289.08-64.2,671.46-64.2,878,0,360.61-122.7,489.18-122.7,489.18h-2629.6s-125.27-206.16-125.53-489.18c-0.15-166.48-17.07-572.12-30.98-878h2973"/><path id="path502" fill-rule="nonzero" fill="#133242" d="m9417.5,1367.2-238.64,0c41.85-299.07,126.5-598.47,155.45-907.18,64.35,289.61,12.33,618.01,83.19,907.18"/><path id="path504" fill-rule="nonzero" fill="#133242" d="m10014,990c10-260-69.96-500-159.96-740,218.16,335.09,308.86,724.84,309.86,1117.2h-546.17c1.47-46.48,2.26-92.65,6.31-137.18,53.08-417.14,2.68-822.78-2.97-1230h44.83c49.65,345.97,2.09,812.3,348.1,990"/><path id="path506" fill-rule="nonzero" fill="#133242" d="m10914,541.36c-9.4,130.11-15.6,249.17-15.6,336.64,0,360.61-122.7,489.18-122.7,489.18h-627.2c71.8-405.78,274.6-916.95,765.5-825.82"/><g id="g508"><g id="g510" clip-path="url(#clipPath512)"><path id="path522" fill-rule="nonzero" fill="url(#linearGradient516)" d="m10913,556.93c-9.4,130.1-14.5,233.6-14.5,321.07,0,360.61-122.7,489.18-122.7,489.18l-601.2-7.19c71.8-405.78,268.9-861.1,738.4-803.06"/></g></g><path id="path524" fill-rule="nonzero" fill="#133242" d="m8574.3,650c265.87,132.94,288.33,446.18,341.28,717.18h-769.71s-125.27-206.16-125.53-489.18c-0.07-77.324-3.76-206.29-9.08-352.86,16.94-7.176,34.43-12.821,53.04-15.145,180-20,350,60,510,140"/><g id="g526"><g id="g528" clip-path="url(#clipPath530)"><path id="path540" fill-rule="nonzero" fill="url(#linearGradient534)" d="m8564.3,669.99c265.87,132.94,276.67,436.67,351.28,697.19h-769.71s-125.27-206.16-125.53-489.18c-0.07-77.324-2.51-171.39-7.83-317.95,16.94-7.18,49.98-17.739,68.58-20.063,180-20,323.21,50,483.21,130"/></g></g><path id="path542" fill-rule="nonzero" fill="#fabd2a" d="m8118.7,432.94c-6.09,0-11.95,0.089-17.55,0.265-8.29,0.242-14.79,7.168-14.54,15.449,0.26,8.282,7.1,14.993,15.45,14.532,9.05-0.262,18.79-0.332,29.21-0.098,8.14-0.059,15.15-6.387,15.33-14.668s-6.38-15.148-14.67-15.332c-4.53-0.098-8.94-0.148-13.23-0.148zm72.73,4.144c-7.55,0-14.05,5.684-14.89,13.356-0.91,8.234,5.02,15.648,13.27,16.554,9.37,1.035,19.09,2.297,29.16,3.801,8.12,1.277,15.83-4.426,17.05-12.617,1.22-8.196-4.43-15.832-12.62-17.051-10.46-1.563-20.57-2.883-30.31-3.957-0.56-0.059-1.12-0.086-1.66-0.086zm-149.52,1.531c-0.8,0-1.62,0.059-2.43,0.196-20.19,3.281-31.07,6.777-31.53,6.921-7.87,2.563-12.19,11.028-9.63,18.911,2.56,7.859,11.03,12.148,18.87,9.636,0.1-0.027,9.45-2.988,27.1-5.859,8.18-1.328,13.73-9.031,12.4-17.207-1.19-7.363-7.56-12.598-14.78-12.598zm238.23,13.438c-6.87,0-13.07,4.738-14.63,11.719-1.81,8.085,3.27,16.105,11.36,17.918,9.32,2.089,18.88,4.398,28.66,6.945,8.02,2.051,16.21-2.727,18.3-10.742,2.08-8.016-2.72-16.211-10.74-18.301-10.13-2.625-20-5.008-29.66-7.176-1.1-0.246-2.21-0.363-3.29-0.363zm86.75,23.887c-6.33,0-12.21,4.035-14.27,10.371-2.56,7.879,1.76,16.336,9.64,18.898,9.18,2.977,18.5,6.148,27.99,9.527,7.8,2.786,16.38-1.296,19.17-9.097,2.78-7.805-1.3-16.387-9.11-19.16-9.76-3.477-19.36-6.75-28.79-9.805-1.55-0.5-3.1-0.734-4.63-0.734zm84.36,31.257c-5.88,0-11.46,3.481-13.85,9.243-3.19,7.644,0.43,16.421,8.08,19.609,8.95,3.726,18.04,7.625,27.24,11.707,7.55,3.371,16.43-0.047,19.79-7.625,3.36-7.57-0.05-16.438-7.63-19.797-9.41-4.18-18.71-8.176-27.88-11.98-1.88-0.786-3.84-1.157-5.75-1.157zm81.44,38.188c-5.33,0-10.5,2.847-13.22,7.879-3.93,7.297-1.21,16.394,6.09,20.324,8.7,4.684,17.25,9.512,25.59,14.453,7.16,4.207,16.35,1.856,20.55-5.273,4.22-7.141,1.86-16.34-5.27-20.547-8.7-5.137-17.58-10.157-26.63-15.039-2.27-1.223-4.71-1.797-7.11-1.797zm76.55,47.207c-4.73,0-9.38,2.234-12.31,6.406-4.74,6.785-3.08,16.141,3.71,20.887,8.11,5.676,16.04,11.445,23.79,17.305,6.58,5.031,15.99,3.71,21-2.899,5.01-6.601,3.71-16.008-2.9-21.008-8.04-6.093-16.28-12.097-24.7-17.988-2.62-1.824-5.62-2.703-8.59-2.703zm70.74,55.574c-4.17,0-8.32,1.731-11.28,5.106-5.47,6.222-4.85,15.707,1.38,21.164,7.46,6.55,14.73,13.171,21.8,19.836,6.03,5.679,15.52,5.41,21.2-0.637,5.68-6.035,5.4-15.528-0.64-21.199-7.32-6.895-14.84-13.75-22.58-20.539-2.84-2.5-6.37-3.731-9.88-3.731zm64.43,62.832c-3.66,0-7.31,1.316-10.19,3.992-6.08,5.625-6.45,15.117-0.82,21.196,6.78,7.324,13.33,14.656,19.67,21.992,5.4,6.258,14.88,6.961,21.15,1.543,6.27-5.41,6.96-14.883,1.54-21.157-6.55-7.585-13.34-15.171-20.35-22.75-2.95-3.195-6.97-4.816-11-4.816zm57.8,69c-3.15,0-6.34,0.984-9.04,3.039-6.61,5.008-7.91,14.41-2.91,21.016,6.08,8.027,11.89,15.984,17.43,23.828,4.79,6.773,14.16,8.379,20.91,3.601,6.77-4.785,8.37-14.14,3.6-20.91-5.73-8.113-11.74-16.324-18.02-24.629-2.95-3.894-7.44-5.945-11.97-5.945zm50.79,74.348c-2.67,0-5.39,0.711-7.83,2.214-7.06,4.329-9.28,13.567-4.94,20.626,5.36,8.75,10.36,17.238,15,25.417,4.08,7.2,13.23,9.731,20.45,5.649,7.19-4.082,9.73-13.242,5.64-20.442-4.79-8.464-9.97-17.265-15.53-26.308-2.83-4.617-7.75-7.156-12.79-7.156zm42.89,79.175c-2.12,0-4.27,0.454-6.32,1.399-7.51,3.496-10.77,12.422-7.27,19.933,4.43,9.508,8.31,18.504,11.54,26.739,3.03,7.722,11.75,11.492,19.44,8.484,7.72-3.027,11.52-11.738,8.49-19.441-3.46-8.813-7.59-18.379-12.26-28.442-2.55-5.457-7.97-8.672-13.62-8.672"/><path id="path544" fill-rule="nonzero" fill="#fabd2a" d="m10860,463.57c-8.3,0-15,6.641-15,14.883-0.1,8.281,6.6,15.051,14.8,15.117,12,0.098,21.9,0.293,29.8,0.488,8.4,0.665,15.1-6.316,15.3-14.597,0.3-8.281-6.3-15.176-14.5-15.383-8.1-0.215-18.2-0.41-30.3-0.508h-0.1zm-60,0.305h-0.3c-9.4,0.144-19.5,0.359-30.1,0.652-8.3,0.215-14.8,7.11-14.6,15.391,0.2,8.144,6.9,14.598,15,14.598,0.1,0,0.2,0,0.4-0.008,10.5-0.274,20.4-0.489,29.8-0.633,8.3-0.129,14.9-6.953,14.8-15.234-0.2-8.207-6.8-14.766-15-14.766zm-89.8,5.262c-0.8,0-1.5,0.047-2.3,0.168-9.8,1.461-20,3.296-30.3,5.449-8.1,1.687-13.3,9.629-11.7,17.742,1.7,8.113,9.7,13.332,17.8,11.633,9.8-2.043,19.4-3.774,28.7-5.156,8.2-1.223,13.8-8.86,12.6-17.051-1.1-7.446-7.5-12.785-14.8-12.785zm-87.7,20.293c-1.4,0-2.9,0.214-4.4,0.664-9.6,2.941-19.3,6.132-29.1,9.597-7.8,2.754-11.9,11.321-9.1,19.133,2.7,7.813,11.3,11.914,19.1,9.152,9.4-3.312,18.7-6.386,27.9-9.21,8-2.43,12.4-10.821,10-18.743-2-6.453-8-10.593-14.4-10.593zm-84.2,31.711c-2.1,0-4.2,0.417-6.2,1.316-9.2,4.16-18.5,8.535-27.6,13.144-7.5,3.711-10.4,12.727-6.7,20.125,3.7,7.415,12.7,10.415,20.1,6.692,8.8-4.414,17.7-8.613,26.5-12.598,7.6-3.398,11-12.273,7.6-19.836-2.5-5.554-8-8.843-13.7-8.843zm-79.5,42.187c-2.7,0-5.4,0.73-7.9,2.266-8.7,5.425-17.4,11.121-25.7,16.941-6.8,4.746-8.5,14.094-3.7,20.891,4.7,6.804,14.1,8.433,20.9,3.718,7.9-5.527,16.1-10.937,24.4-16.086,7-4.374,9.1-13.628,4.8-20.664-2.9-4.558-7.8-7.066-12.8-7.066zm-72.2,53.543c-3.6,0-7.1,1.25-10,3.777-7.8,6.977-15.4,14.145-22.5,21.328-5.8,5.911-5.7,15.403,0.2,21.211,5.9,5.813,15.4,5.735,21.2-0.152,6.6-6.711,13.7-13.43,21.1-19.941,6.1-5.508,6.7-14.993,1.2-21.184-3-3.34-7.1-5.039-11.2-5.039zm-60.6,66.277c-4.6,0-9.1,2.102-12,6.067-5.9,7.91-11.9,16.394-17.7,25.246-4.6,6.902-2.7,16.211,4.2,20.789,6.9,4.582,16.2,2.715,20.8-4.207,5.6-8.41,11.2-16.465,16.8-23.957,4.9-6.66,3.5-16.055-3.2-20.985-2.6-1.996-5.8-2.953-8.9-2.953zm-48.3,75.942c-5.3,0-10.4,2.769-13.1,7.695-5,8.875-9.8,17.852-14.5,26.875-3.8,7.352-0.9,16.402,6.5,20.215,7.3,3.816,16.4,0.933,20.2-6.43,4.5-8.75,9.2-17.449,14-26.054,4-7.235,1.4-16.368-5.8-20.411-2.3-1.289-4.8-1.89-7.3-1.89zm-40.4,80.488c-5.7,0-11.2,3.27-13.7,8.809-4.2,9.343-8.3,18.621-12.2,27.761-3.3,7.61,0.2,16.426,7.8,19.7,7.6,3.242,16.5-0.254,19.7-7.883,3.9-8.946,7.9-18.028,12-27.199,3.4-7.54,0.1-16.422-7.4-19.852-2-0.906-4.2-1.336-6.2-1.336zm-34.7,83.152c-6,0-11.7,3.661-14,9.629-3.8,9.883-7.4,19.375-10.6,28.391-2.9,7.781,1.2,16.387,9,19.219,7.7,2.832,16.3-1.196,19.2-8.989,3.2-8.836,6.7-18.172,10.4-27.879,3-7.734-0.9-16.406-8.7-19.375-1.7-0.671-3.5-0.996-5.3-0.996zm-30,84.996c-6.4,0-12.3,4.04-14.3,10.39-5.9,18.42-9,29.29-9,29.29-2.3,7.96,2.3,16.26,10.3,18.54,7.9,2.24,16.2-2.34,18.5-10.31,0-0.13,3-10.62,8.7-28.32,2.6-7.89-1.8-16.34-9.6-18.87-1.6-0.49-3.1-0.72-4.6-0.72"/><path id="path546" fill-rule="nonzero" fill="#133242" d="m10862,1181.8c-36.2,132.56-86.5,185.42-86.5,185.42h-2629.6s-25.7-42.41-53.85-114.97c347.58-254.44,642.03-196.62,1383.8-221.09,741.82-24.46,1292.8,107.36,1386.1,150.64"/><path id="path548" fill-rule="nonzero" fill="#f6c98a" d="m11033,5964-171.5-1215s70.8-684.63,178.9-900.81c108.1-216.19,201.3-366.4,328-396.22,126.8-29.82,492-104.37,492-104.37s-104.4,678.33-171.5,1006.3c-67,328-149,1110.7-238.5,1323.1-89.4,212.42-417.4,286.98-417.4,286.98"/><g id="g550"><g id="g552" clip-path="url(#clipPath554)"><path id="path564" fill-rule="nonzero" fill="url(#linearGradient558)" d="m11527,3692.5c-78.2,0-218-39.39-273.9,27.7-100.7,111.81-145.4,257.17-178.9,413.71-33.6,134.17,22.3,245.99,156.5,245.99,159.3,6.38,304.1,52.75,430.2,130.74-61.3,373.9-133,982.82-210.3,1166.3-89.4,212.42-417.4,286.98-417.4,286.98l-171.5-1215s70.8-684.63,178.9-900.81c108.1-216.19,201.3-366.4,328-396.22,126.8-29.82,492-104.37,492-104.37s-15.5-13.19-33.1,97.37c-19.5,36.09-149.6,256.54-300.5,247.66"/></g></g><path id="path566" fill-rule="nonzero" fill="#f6c98a" d="m8274.8,6023.6s126.72-887.06,134.16-1066c7.46-178.9-29.81-342.88-29.81-342.88s-37.28-320.54-104.35-566.53c-67.09-245.99-186.37-581.42-186.37-581.42l-723.06-536.71s-52.19,260.89,0,819.96c52.18,559.06,178.92,1677.2,305.63,1926.9s603.8,346.62,603.8,346.62"/><g id="g568"><g id="g570" clip-path="url(#clipPath572)"><path id="path582" fill-rule="nonzero" fill="url(#linearGradient576)" d="m8409,4957.6c-7.44,178.9-134.16,1066-134.16,1066s-477.09-96.92-603.8-346.62c-89.87-177.09-179.74-790.99-243.02-1332.5,200.03-173.51,540.79-18.14,727.54-132.27,167.72-100.64,33.54-413.71-67.09-559.07-111.81-145.36-436.07-11.18-536.7-212.45-72.85-156.9-123.22-322.24-161-491.77l697.7,517.87s119.28,335.43,186.37,581.42c67.07,245.99,104.35,566.53,104.35,566.53s37.27,163.98,29.81,342.88"/></g></g><path id="path584" fill-rule="nonzero" fill="#FFF" d="m8289.6,6029.4s-345.77-43-561.93-229.36c-216.17-186.37-466.62-1323.2-466.62-1323.2s313.08-110.55,581.43-120.5,559.14,49.7,559.14,49.7,56.26,298.14,35.55,618.68c-20.71,320.53-147.57,1004.6-147.57,1004.6"/><path id="path586" fill-rule="nonzero" fill="#f2f2f2" d="m8467.7,5013.3c-7.51,116.27-67.8,346.19-92.12,508.13,14.61-264.4,11.1-581.62-61.22-831.46-40-130-350-40-470,70,90-140,200-290,380-260-170-50-370-70-540-20,230-90,423.35-23.87,663.35-83.87,0,0,53.5,10.13,53.93,9.91,40.13,70.27,83.35,339.64,66.06,607.29"/><path id="path588" fill-rule="nonzero" fill="#FFF" d="m11058,5990c63.8-385.05,38.6-845.05-5.9-1089.8-35.7-195.69-139.7-536.98-139.7-536.98s223.3,42.72,525.7,113.54,421.7,100.63,421.7,100.63-259.1,824.34-318.9,1013.8c-102.8,326.12-482.9,398.81-482.9,398.81"/><path id="path590" fill-rule="nonzero" fill="#f2f2f2" d="m11744,4640c-40-10-80-30-120-40-180-40-340-20-510-90,160,200,370,390,350,670-110-190-210-460-400-560,86.7,236.25,68.9,629.32,32.6,883.63-4.5-187.89-50.8-513.83-72.6-633.06-35.6-195.7-111.4-507.27-111.4-507.27s27,5.15,74.7,14.82c79.8,37.15,164.7,64.54,246.7,91.88,170,40,380,50,510,170"/><path id="path592" fill-rule="nonzero" fill="#f6c98a" d="m9289.8,7007.5s51.01-462.15-45.89-536.7-645.3-395.07-645.3-395.07l1237.8-976.17,719.4,1065.6s-420,178.9-485.8,298.17c-65.8,119.28-53.3,544.16-53.3,544.16h-726.94"/><g id="g594"><g id="g596" clip-path="url(#clipPath598)"><path id="path608" fill-rule="nonzero" fill="url(#linearGradient602)" d="m9038.9,6068.3c123-22.36,246-44.72,368.98-44.72-57.91,193.06-74.22,386.12-113.54,579.18-8.41-61.48-23.8-111.42-50.45-131.93-96.9-74.55-645.3-395.07-645.3-395.07l34.29-27.06c131.31,30.43,264.69,47.87,406.02,19.6"/></g></g><g id="g610"><g id="g612" clip-path="url(#clipPath614)"><path id="path624" fill-rule="nonzero" fill="url(#linearGradient618)" d="m10070,6463.4c-6.9,12.6-13,28.76-18.3,47.3-2.6-176.5-36.2-358.34-95.95-520.63,169.85,48.51,360.65,63.37,545.15,93.84l54.9,81.32s-420,178.9-485.8,298.17"/></g></g><path id="path626" fill-rule="nonzero" fill="#e39854" d="m10019,6778.8c-5.2,121.72-2,228.78-2,228.78h-726.94s11.65-105.64,13.23-224.05c121.59-49.69,236.25-125.82,350.87-144.93,130.04-13,248.73,57.2,364.84,140.2"/><path id="path628" fill-rule="nonzero" fill="#e39854" d="m9430.2,6504.4s66.48-268.35,111.51-368.99c45.03-100.63,79.27-134.17,154.39-145.35,75.13-11.18,140.27,0,140.27,0s-7.81-72.69-106.36-72.69c-98.54,0-219.67,55.91-228.99,67.09-9.32,11.19-61.49,34.89-48.46,162.13,13.03,127.25-22.36,357.81-22.36,357.81"/><path id="path630" fill-rule="nonzero" fill="#FFF" d="m8963.2,6292.5-688.37-268.94s74.52-1051,89.43-1229.9c14.92-178.92,89.44-826.6,81.99-1143.8-7.44-317.22,14.31-935.92-55.84-1040.3-70.15-104.35,17.96-201.27,0-335.44-17.97-134.18-159.6-81.98-137.24-119.26,22.37-37.28,59.63-104.35,44.73-156.54-14.9-52.18-208.71-633.62-216.17-685.79-7.45-52.18,52.19-111.82,245.99-126.72,193.81-14.9,1583.6-81.99,1977-37.27,393.5,44.73,593.5,89.45,593.5,89.45s11.8,223.62-34.5,365.25,21,246,35.8,305.63-71.1,104.35-76.6,171.44-92.6,733.18-120,849.76c-27.4,116.59-10.7,784.44,78.4,1051.2,89,266.74,214.3,588.76,259,834.75,44.8,245.99,82,1147.9,82,1147.9l-803.4,328.58-511.72-827.98-843.97,827.98"/><path id="path632" fill-rule="nonzero" fill="#f2f2f2" d="m8534.3,1970c-20,10,60,110,100,110,410,40,810-10,1220-20-360,60-710,100-1040,330-50,30-130,40-190,60,90,140,30,320,190,400,230,120,490,260,600,500-250-170-550-180-840-190,10,260,180,510,440,600,10,10,80,30,60,40-320,190-470,490-520,840-60,380-110,690-190,1070-20,80-80,290-80,290-2.68,8.02-4.97,16.22-7.05,24.55l-2.45-0.96s74.52-1051,89.43-1229.9c14.92-178.92,89.44-826.6,81.99-1143.8-7.44-317.22,14.31-935.92-55.84-1040.3-70.15-104.35,17.96-201.27,0-335.44-17.97-134.18-159.6-81.98-137.24-119.26,22.37-37.28,59.63-104.35,44.73-156.54-8.84-30.94-80.55-247.87-139.03-430.27,59.01,82.21,134.19,147.12,235.46,181.93,380,130,820-60,1220,50-370,0-750,40-1080,170"/><path id="path634" fill-rule="nonzero" fill="#f2f2f2" d="m10864,1603.3c-46.3,141.63,21,246,35.8,305.63s-71.1,104.35-76.6,171.44-92.6,733.18-120,849.76c-27.4,116.59-10.7,784.44,78.4,1051.2,89,266.74,213.6,588.88,259,834.75,82,443.97,42,731.94,56.8,983.97-42.8-610.6-123.1-1343.7-392.8-1800-40-60-100-120-160-150-190-110-390-200-599.96-210,149.96-100,449.96-60,459.96-260,0-60-120-100-200-140,0,30-20,30-40,30,150-180,420-360,490-580,60-180,60-390,0-540-100-250-460-210-719.96-250,249.96,10,519.96,50,749.96-20,60-20-40-170-140-200-390-120-789.96-90-1190-210-10,0-30-10-40-30,470,60,969.96,130,1410-40,66.2-28.34,105.5-101.31,143.4-168.31,20.3,4.03,30.5,6.32,30.5,6.32s11.8,223.62-34.5,365.25"/><path id="path636" fill-rule="nonzero" fill="#f2f2f2" d="m8894.3,6180s760.62-840,855.31-865,95.72-15,152.71,0c56.98,15,507.64,820,507.64,820s-413.12-820-521.89-860-145.18,10-191.98,35c-46.79,25-801.79,870-801.79,870"/><path id="path638" fill-rule="nonzero" fill="#f6c98a" d="m7618.9,3474.2s342.91,111.81,663.43,81.99c320.52-29.81,827.42,5.06,827.42,5.06l111.81-415.02s-737.97-298.2-1058.5-335.46c-320.54-37.26-784.56,15.43-797.61,119.28-13.05,103.86,67.09,395.07,253.45,544.15"/><g id="g640"><g id="g642" clip-path="url(#clipPath644)"><path id="path654" fill-rule="nonzero" fill="url(#linearGradient648)" d="m8099.6,2926.4c-173.65-33.13-346.61-55.91-514.34-33.55-69.88,9.98-148.65,11.16-220.43,43.09,0.17-1.96,0.31-3.98,0.53-5.82,13.05-103.85,477.07-156.54,797.61-119.28,320.53,37.26,1058.5,335.46,1058.5,335.46l-15.92,59.07c-353.2-136.1-709-203.3-1106-279"/></g></g><path id="path656" fill-rule="nonzero" fill="#f6c98a" d="m10778,3385.3s202.1,51.23,379.5,131.06c177.5,79.82,271.7,168.43,464.1,109.77,192.3-58.67,260.9-263.73,238.5-390.44-22.4-126.72-290.7-439.78-700.7-387.61-410,52.18-603.8,268.35-603.8,268.35l222.4,268.87"/><g id="g658"><g id="g660" clip-path="url(#clipPath662)"><path id="path672" fill-rule="nonzero" fill="url(#linearGradient666)" d="m10560,3128-3.9-11.55s193.8-216.17,603.8-268.35c410-52.17,678.3,260.89,700.7,387.61,1.6,9.27,2.7,19.42,3.4,30.15-256.5-456.98-904.8-382.16-1304-137.86"/></g></g><path id="path674" fill-rule="nonzero" fill="#58332d" d="m7915.4,8826.5s-259.02,1104.9-44.09,1647.9,617.19,905.1,928.92,1035.8c311.72,130.7,683.81,201.1,683.81,201.1s-191.06-100.6-261.45-150.8c-70.4-50.3-142.73-171-142.73-171s416.55,320.4,989.26,321.8c853.5,2.2,1426.1-492.7,1426.1-492.7s-212.5,60.3-292.3,60.3c-79.7,0-140.9-10.1-140.9-10.1s376.6-120.6,479.4-754.2c84.1-517.84-84.2-1836.4-84.2-1836.4l-3541.8,148.28"/><path id="path676" fill-rule="nonzero" fill="#40200d" d="m11186,9109.6c-190.1-156.54-480.8-178.9-738-178.9-670.85,11.18-1364.1-22.37-2001.4,212.45-178.89,67.09-402.52,134.17-458.43,335.43-82.96,313.42-112.72,619.29-139.41,929.99-172.27-561.47,66.95-1582.1,66.95-1582.1l3541.8-148.28s122.2,957.33,106.3,1560.9c-63.2-420.48-48-867.55-377.8-1129.5"/><path id="path678" fill-rule="nonzero" fill="#e39854" d="m11158,8920.3s102.6,223.14,231.2,161.65c128.6-61.46,185.4-369.23,132.6-556.56s-350-325.49-399.1-289.66c-48.9,35.85-13.7,81.43-13.7,81.43l49,603.14"/><path id="path680" fill-rule="nonzero" fill="#f6c98a" d="m11197,8366.2,49,603.09s33,71.67,84.9,122.58c18.6,2.39,38.1-0.25,58.2-9.9,128.6-61.46,185.4-369.23,132.6-556.56-24.4-86.8-101.5-163.05-181.9-216.34-60.1-27.26-111.2-37.44-129.1-24.36-49,35.83-13.7,81.49-13.7,81.49"/><path id="path682" fill-rule="nonzero" fill="#e39854" d="m11457,8678.2s22.3,270.88-111.2,273.75c-133.6,2.93-181.3-248.59-128.2-269.43,53.1-20.8,104.5-31.99,51.5-70.62-52.9-38.66-86.6-103.68-86.6-103.68s97.9-3.18,155.8,26.19c57.8,29.44,61.9,153.04,61.9,153.04s-46.4-95.98-92.3-108.72c-45.9-12.66,104.7,47.55,0.4,133.99-104.4,86.36-54,196.85,0.6,193.35,128.5-8.09,148.1-227.87,148.1-227.87"/><path id="path684" fill-rule="nonzero" fill="#e39854" d="m8171.9,8920.3s-102.66,223.14-231.25,161.65c-128.6-61.46-185.37-369.23-132.55-556.56,52.72-187.33,350.01-325.49,399.08-289.66,48.95,35.85,13.68,81.43,13.68,81.43l-48.96,603.14"/><path id="path686" fill-rule="nonzero" fill="#f6c98a" d="m8132.8,8366.2-48.91,603.09s-33,71.67-85,122.58c-18.57,2.39-38.08-0.25-58.18-9.9-128.6-61.46-185.37-369.23-132.55-556.56,24.42-86.8,101.44-163.05,181.91-216.34,60.11-27.26,111.14-37.44,129.02-24.36,49.06,35.83,13.71,81.49,13.71,81.49"/><path id="path688" fill-rule="nonzero" fill="#e39854" d="m7872.7,8678.2s-22.3,270.88,111.22,273.75c133.56,2.93,181.28-248.59,128.19-269.43-53.08-20.8-104.54-31.99-51.56-70.62,52.98-38.66,86.68-103.68,86.68-103.68s-97.93-3.18-155.82,26.19c-57.88,29.44-61.93,153.04-61.93,153.04s46.42-95.98,92.33-108.72c45.93-12.66-104.73,47.55-0.41,133.99,104.36,86.36,54.02,196.85-0.59,193.35-128.46-8.09-148.11-227.87-148.11-227.87"/><path id="path690" fill-rule="nonzero" fill="#f6c98a" d="m10931,10605-2513.3,0-392.17-1096.1s180.99-1508.4,241.32-1689.4c60.35-181.02,251.4-271.52,432.41-442.48,142.7-134.77,385.41-360.15,560.57-449.53,23.53-11.99,224.06-104.56,417.8-105.33,193.73-0.77,380.69,90.25,402.39,100.91,175.8,86.13,424.3,316.89,569.4,453.95,181.1,170.96,372.1,261.46,432.4,442.48,60.4,181,241.4,1689.4,241.4,1689.4l-392.2,1096.1"/><g id="g692"><g id="g694" clip-path="url(#clipPath696)"><path id="path706" fill-rule="nonzero" fill="url(#radialGradient700)" d="m8963,8406.5c14.61-201.25-136.68-376.27-337.94-390.9-201.25-14.62-376.27,136.68-390.9,337.94-14.63,201.25,136.67,376.27,337.93,390.9,201.27,14.62,376.28-136.68,390.91-337.94"/></g></g><g id="g708"><g id="g710" clip-path="url(#clipPath712)"><path id="path722" fill-rule="nonzero" fill="url(#radialGradient716)" d="m11111,8406.5c14.6-201.25-136.7-376.27-338-390.9-201.2-14.62-376.2,136.68-390.9,337.94-14.6,201.25,136.7,376.27,338,390.9,201.2,14.62,376.2-136.68,390.9-337.94"/></g></g><path id="path724" fill-rule="nonzero" fill="#e39854" d="m9484.1,7982.4s-3.5-143.88,182.72-148.4c149.15-3.62,189.44,99.3,189.15,140.83-119.07-58.31-248.98-52.7-371.87,7.57"/><path id="path726" fill-rule="nonzero" fill="#e39854" d="m9809.7,7410.5-28.14-3.13c-53.16-9.38-100.06-3.12-153.21,6.26-31.28,6.26-71.92,18.76-84.42-12.51-9.38-34.39,6.25-50.02-15.64-84.41,36.57-4.3,103.19,6.25,150.08,6.25,59.4,0,101.42,1.05,157.7,1.05-18.76,37.51-29.51,39.59-26.37,86.49"/><path id="path728" fill-rule="nonzero" fill="#f0b085" d="m10178,7679.7s-214.27-93.85-511.72-92.08c-262.26,1.58-491.86,84.11-491.86,84.11s162.71-322.12,504.53-309.81c341.85-12.15,499.05,317.78,499.05,317.78"/><path id="path730" fill-rule="nonzero" fill="#f6c98a" d="m10178,7679.7s-225.36-181.48-522.79-179.73c-262.25,1.6-480.79,171.76-480.79,171.76s174.69-297.95,516.53-285.62c341.85-12.16,487.05,293.59,487.05,293.59"/><path id="path732" fill-rule="nonzero" fill="#7f4a42" d="m10232,7738c-13-11.05-23.2-26.43-38.6-34.72-71.5-38.42-159.3-84.42-523.46-84.42s-491.89,67.48-531.82,86.76c-21.16,10.25-34.09,43.62-56.74,48.79-20.68,4.68,4.87-36.08,8.01-40.08,23.77-30.07,74.06-40.82,108.82-54.94,43.08-17.44,87.76-30.58,133.14-40.55,118.95-26.2,241.79-33.12,363.39-35.02l-0.05,1.6c100.11,6.44,229.84,18.2,251.03,21.64,89.98,14.69,170.78,45.16,255.68,76.29,26.8,9.86,48.4,23.64,61,50.32,15.4,32.61-16.4,16.26-30.4,4.33"/><path id="path734" fill-rule="nonzero" fill="#fde3ac" d="m9869.5,7454c1.41-19.5-24.26-37.26-57.34-39.66-33.07-2.42-61.04,11.45-62.44,30.96-1.44,19.51,24.25,37.26,57.31,39.66,33.09,2.4,61.06-11.44,62.47-30.96"/><path id="path736" fill-rule="nonzero" fill="#fde3ac" d="m9960,7497.9c5.53-18.77-15.81-41.56-47.64-50.89-31.81-9.36-62.07-1.71-67.56,17.05-5.56,18.76,15.8,41.55,47.62,50.89,31.79,9.35,62.05,1.72,67.58-17.05"/><path id="path738" fill-rule="nonzero" fill="#FFF" d="m9900.1,7479.6c3.04-10.35-8.71-22.93-26.26-28.07-17.56-5.15-34.25-0.94-37.3,9.42-3.02,10.34,8.75,22.89,26.28,28.06,17.53,5.15,34.24,0.94,37.28-9.41"/><path id="path740" fill-rule="nonzero" fill="#e39854" d="m10667,9177.1s-171.2,27.37-340-31.83c-168.8-59.19-201.3-307.63-173.5-345.02,27.8-37.32,118.3-45.72,173.7-40.86,55.5,4.87,106.6-1.16,106.6-1.16s-68-20.52-146.4-22.98c-78.3-2.47-153.1-44.41-153.1-44.41l-31.2,2.38s-70,413.04,146.7,478.52c268,80.99,417.2,5.36,417.2,5.36"/><path id="path742" fill-rule="nonzero" fill="#2f1d1a" d="m10091,8723.5s177.8-81.66,423-20.27c245.3,61.37,322.2,140.63,322.2,140.63l86.6-70.46s-125.6-161.86-398.2-211.15c-272.7-49.31-454.4,74.36-454.4,74.36l20.8,86.89"/><path id="path744" fill-rule="nonzero" fill="#544441" d="m10703,9516.4c-262.1,123.25-576.9-69.55-799.64-213.1,0,0,11.99-40.21,46.42-30.69,273.72,75.6,636.62,230.24,906.52,98.71-13.8,80.41-153.3,145.09-153.3,145.08"/><path id="path746" fill-rule="nonzero" fill="#e39854" d="m8692.4,9177.1s171.21,27.37,339.99-31.83c168.82-59.19,201.23-307.63,173.45-345.02-27.78-37.32-118.22-45.72-173.68-40.86-55.49,4.87-106.61-1.16-106.61-1.16s68-20.52,146.38-22.98c78.36-2.47,153.09-44.41,153.09-44.41l31.22,2.38s70.04,413.04-146.62,478.52c-268.03,80.99-417.22,5.36-417.22,5.36"/><path id="path748" fill-rule="nonzero" fill="#2f1d1a" d="m9269,8723.5s-177.78-81.66-423.03-20.27c-245.31,61.37-322.13,140.63-322.13,140.63l-86.63-70.46s125.56-161.86,398.22-211.15c272.67-49.31,454.37,74.36,454.37,74.36l-20.8,86.89"/><path id="path750" fill-rule="nonzero" fill="#544441" d="m8590.4,9516.4c262.18,123.25,576.93-69.55,799.7-213.1,0,0-12.01-40.21-46.43-30.69-273.74,75.6-636.61,230.24-906.55,98.71,13.85,80.41,153.28,145.09,153.28,145.08"/><path id="path752" fill-rule="nonzero" fill="#40200d" d="m11154,10716c-360.3,238.3-944.8,294.5-1487.6,277.9-542.76,16.6-1127.3-39.6-1487.6-277.9-455.92-301.7-242.53-1236.9-180.9-1543.8,61.63-306.86,147.02-777.34,158.31-733.88,11.3,43.47,139.55,789.33,201.18,1171.5,61.63,382.13,184.88,754.21,184.88,754.21s644.6-34.7,1046.4-39.6v-0.2c23.21-0.3,45.59-0.4,66.77-0.4h10.9,10.86c21.2,0,43.54,0.1,66.79,0.4v0.2c401.8,4.9,1046.4,39.6,1046.4,39.6s123.3-372.08,184.9-754.21c61.6-382.14,189.9-1128,201.2-1171.5,11.2-43.46,96.6,427.02,158.3,733.88,61.6,306.86,275,1242.1-180.9,1543.8"/><path id="path754" fill-rule="nonzero" fill="#58332d" d="m11185,10846c-360.3,238.4-975.7,270.1-1518.4,253.4-542.76,16.7-1128.2-59.8-1488.4-298.2-455.91-301.6-241.65-1322.8-180.02-1629.7,61.63-306.86,522.92,1257,522.92,1257,224.35-31.9,730.38-32.5,1058.5-67.1,328.11-34.5,1276.6,74.6,1276.6,74.6s100.4-415.5,162.1-797.62c61.6-382.14,207.1-736.59,268.7-429.74,61.7,306.86,354,1335.7-101.9,1637.4"/><g id="g756"><g id="g758" clip-path="url(#clipPath760)"><path id="path770" fill-rule="nonzero" fill="url(#linearGradient764)" d="m10705,11033s-164,59.7-201.3,111.8c141.7,119.3,608.3,223.7,608.3,223.7s-301.3,170.5-966.1,201.2c-664.75,30.7-1185.2-283.2-1311.9-410,7.44,111.9,119.25,253.5,193.81,335.5-231.1-22.4-514.35-335.5-626.16-529.3-89.45-156.5-275.81-737.9-275.81-857.2,238.54,305.6,484.53,663.4,872.14,805.1-22.36-97-96.9-268.4-96.9-268.4s130.9,110.3,559.07,193.8,1244.8,193.8,1244.8,193.8"/></g></g><path id="path772" fill-rule="nonzero" fill="#231f20" d="m9824,4310.8c93.32,53.58,231.32,49.66,307.92,39.15s262.4-23.64,290.8-95.91c29.3-74.48-13.3-329.62-44-523.84-30.8-194.23-62.6-407.05-210-389.27-147.4,17.77-351.23,26.67-381.61,34.01-30.38,7.35-73.9,29.45-88.16,122.65-14.25,93.22,30.36,577.85,36.67,639.08,2.85,27.68,11.45,129.96,88.38,174.13"/><path id="path774" fill-rule="nonzero" fill="#524f4b" d="m9845.4,4230.2c84.18,48.32,208.65,44.79,277.75,35.31,69-9.47,236.6-21.32,262.2-86.49,26.5-67.18-11.9-297.3-39.7-472.48-27.7-175.18-56.4-367.11-189.3-351.08-132.9,16.04-316.83,24.05-344.23,30.68-27.4,6.62-66.66,26.56-79.51,110.63-12.85,84.06,27.38,521.16,33.08,576.39,2.56,24.95,10.33,117.2,79.71,157.04"/><g id="g776"><g id="g778" clip-path="url(#clipPath780)"><path id="path790" fill-rule="nonzero" fill="url(#linearGradient784)" d="m10121,3828.9c60,44.41,157.9,37.56,247.4,24.08-7.5-49.99-15.5-100.16-22.9-146.48-27.7-175.18-56.4-367.11-189.3-351.08-132.9,16.04-316.83,24.05-344.23,30.68-27.4,6.62-66.66,26.56-79.51,110.63-6.3,41.21,0.17,167.23,9.05,291.53,127.8-38.01,262.19-41.54,379.49,40.64"/></g></g><path id="path792" fill-rule="nonzero" fill="#f6c98a" d="m9519.7,3638.2c-18.64,74.53-14.92,156.54-41,227.35l-52.19,100.63c-40.98,41-122.99-11.18-145.36-44.73-18.62-37.26-18.62-78.27-37.26-119.27-22.36-40.99-18.63-89.45-41-126.71-18.63-44.73-74.54-82-104.36-123-41-52.18-81.98-85.72-89.45-149.08-11.18-100.63-14.9-223.63,96.91-253.45,44.72-14.9,67.09-7.45,115.54-3.72,52.18,3.72,100.63-14.91,152.82-3.73,96.89,22.36,160.25,89.44,182.61,182.64,22.37,108.07-7.45,212.44-37.26,313.07"/><g id="g794"><g id="g796" clip-path="url(#clipPath798)"><path id="path808" fill-rule="nonzero" fill="url(#linearGradient802)" d="m9519.7,3638.2c-18.64,74.53-14.92,156.54-41,227.35l-47.27,91.15c-174.12-167.41-11.54-436.88-66.41-623.43-33.87-118.51-176.89-169.34-315.66-152.75,14.35-13.66,32.86-24.23,56.63-30.58,44.72-14.9,67.09-7.45,115.54-3.72,52.18,3.72,100.63-14.91,152.82-3.73,96.89,22.36,160.25,89.44,182.61,182.64,22.37,108.07-7.45,212.44-37.26,313.07"/></g></g><g id="g810"><g id="g812" clip-path="url(#clipPath814)"><path id="path824" fill-rule="nonzero" fill="url(#linearGradient818)" d="m9787.1,3374.9c-14.06,7.44-164.9-6.15-229.64,7.96-59.15,11.23-121.12,19.69-180.25,28.14-38.63,5.16-131.51,24.49-153.83-71.16-14.2-60.88,60.89-109.06,108.77-120.31,70.4-19.73,137.98-11.3,211.21,0,56.34,5.61,109.83,8.44,166.17,11.25,47.86,2.81,137.84,112.26,77.57,144.12"/></g></g><path id="path826" fill-rule="nonzero" fill="#f6c98a" d="m9554.6,3363.8c-59.15,11.23-121.16,18.1-180.29,26.55-38.63,5.17-130.39,55.11-152.72-40.53-14.2-60.88,62.65-119.08,110.53-130.33,70.4-19.73,137.98-11.3,211.21,0,56.34,5.61,81.72,32.49,80.04,75.82s-4.02,54.38-68.77,68.49"/><path id="path828" fill-rule="nonzero" fill="#f6c98a" d="m9531.2,3997.3c-70.42,2.83-246.96,0.19-233.3-112.4,10.65-87.77,205.12-70.62,272.7-70.62,56.34,0,285.39-35.57,288.23,48.93,2.8,92.91-262.87,131.27-327.63,134.09"/><g id="g830"><g id="g832" clip-path="url(#clipPath834)"><path id="path844" fill-rule="nonzero" fill="url(#linearGradient838)" d="m9816.5,3501.1c-92.93,22.54-164.49,60.58-257.42,83.12-76.02,19.7-170.6,26.71-249.48,35.16-36.6,0-139.13,11.21-150.56-74.1-2.83-50.68,46.37-100.5,85.82-117.41,70.39-30.95,166.66-36.03,239.87-44.48,64.78-5.61,123.41-11.81,188.14-11.81,50.7,0,121.13-5.64,168.98,8.45,84.49,25.34,39.43,104.17-25.35,121.07"/></g></g><path id="path846" fill-rule="nonzero" fill="#e39854" d="m9559.1,3584.2c-76.02,19.7-170.6,26.71-249.48,35.16-13.33,0-35.43,1.44-58.67-0.79,152.39-72.23,323.17-72.04,491.01-95.31-60.44,20.68-116.19,44.77-182.86,60.94"/><path id="path848" fill-rule="nonzero" fill="#e39854" d="m9516.7,3400.4c-114.03,18.6-293.37,36.7-271.84,27.47,70.39-30.95,166.66-36.03,239.87-44.48,64.78-5.61,123.41-11.81,188.14-11.81,50.7,0,121.13-5.64,168.98,8.45,9.56,2.86,17.36,6.44,23.77,10.51-115.35-16.17-232.8-9.1-348.92,9.86"/><path id="path850" fill-rule="nonzero" fill="#f6c98a" d="m9696.1,3443.5c15.03,74.07-53.13,100.11-147.09,117.78-58.32,10.97-161.54,16.33-240.41,24.77-21.27,0-77.39,29.62-102.03,33.82-27.01,0.29-52.52-22.85-57.3-58.59-2.82-50.68,56.11-116.49,95.56-133.4,70.39-30.95,160.5-25.34,233.71-33.8,37.16-3.22,200.28-35.82,217.56,49.42"/><g id="g852"><g id="g854" clip-path="url(#clipPath856)"><path id="path866" fill-rule="nonzero" fill="url(#linearGradient860)" d="m9901,3634.7c-59.42,72.99-132.78,114.96-225.76,131.52-101.79,15.28-204.91,29.18-308.41,30.4-45.5,0.54-109.31,14.53-136.65-6.7-27.34-21.24-36.87-62.42-36.66-121.61,0.26-70,138.75-69.49,195.11-77.73,92.99-13.76,142.88-5.28,234.79-25.03,73.71-15.84,255.74-113.99,308.96-40.55,22.41,33.87-11.57,84.43-31.38,109.7"/></g></g><path id="path868" fill-rule="nonzero" fill="#e39854" d="m9769.1,3737.8c-28.86,12.99-60.03,22.41-93.8,28.42-101.79,15.28-204.91,29.18-308.41,30.4-45.5,0.54-109.31,14.53-136.65-6.7-21.29-16.54,353.58-4.17,538.86-52.12"/><path id="path870" fill-rule="nonzero" fill="#f6c98a" d="m9669.2,3734.2c-96.56,35.65-236.11,40.22-296.31,53.1-60.19,12.89-115.35,23.85-142.69,2.62-27.34-21.24-36.87-62.42-36.66-121.61,0.26-70,138.75-69.49,195.11-77.73,92.99-13.76,153.68-0.14,253-7.27,75.21-5.39,118.4,117.35,27.55,150.89"/><path id="path872" fill-rule="nonzero" fill="#f6c98a" d="m10391,3599c30.9,70.34,41,151.82,78.7,217.23l68.3,90.45c47.3,33.53,119.4-31.69,135.8-68.51,12.1-39.88,5.2-80.29,16.7-123.84,15.1-44.16,3.3-91.31,19.1-131.8,10.9-47.23,59.7-93.35,82.2-138.78,31.7-58.33,66.4-98.29,63.2-161.99-5.9-101.08-22.9-222.95-138.2-233.57-46.5-7.17-67.3,3.93-114.5,15.74-50.8,12.44-101.7,2.2-151.2,21.99-91.8,38.33-143,115.11-149.4,210.72-3.9,110.29,43,208.18,89.3,302.36"/><g id="g874"><g id="g876" clip-path="url(#clipPath878)"><path id="path888" fill-rule="nonzero" fill="url(#linearGradient882)" d="m10391,3599c30.9,70.34,41,151.82,78.7,217.23l61.9,81.93c143.5-194.29-62-432.61-39.3-625.74,13.5-122.51,145.9-196.65,285.5-203.6-16.4-11.05-36.4-18.36-61-20.63-46.5-7.17-67.3,3.93-114.5,15.74-50.8,12.44-101.7,2.2-151.2,21.99-91.8,38.33-143,115.11-149.4,210.72-3.9,110.29,43,208.18,89.3,302.36"/></g></g><g id="g890"><g id="g892" clip-path="url(#clipPath894)"><path id="path904" fill-rule="nonzero" fill="url(#linearGradient898)" d="m10084,3384.4c15.1,4.96,161.5-33.78,227.7-30.74,60.2,1.15,122.7-0.94,182.4-2.54,39-1.39,133.8,2.05,139.7-95.98,3.8-62.41-78.3-97.29-127.4-100.33-72.7-7.64-137.9,12.04-208.2,35.47-54.6,15-106.9,26.77-161.9,39.02-46.7,10.8-117.1,133.8-52.3,155.1"/></g></g><path id="path906" fill-rule="nonzero" fill="#f6c98a" d="m10311,3334.4c60.2,1.14,122.5-2.51,182.2-4.12,38.9-1.39,137.8,32.43,143.7-65.6,3.8-62.41-81.7-106.87-130.8-109.91-72.7-7.64-137.9,12.04-208.2,35.47-54.6,15-75.1,45.77-66.2,88.2,8.9,42.42,13.1,52.92,79.3,55.96"/><path id="path908" fill-rule="nonzero" fill="#f6c98a" d="m10440,3954.9c69.9-9.03,243.5-41.28,211.1-149.99-25.3-84.72-214.1-35.15-280.7-23.79-55.5,9.45-287.3,12.86-275.9,96.64,12.8,92.07,281.2,85.26,345.5,77.14"/><g id="g910"><g id="g912" clip-path="url(#clipPath914)"><path id="path924" fill-rule="nonzero" fill="url(#linearGradient918)" d="m10076,3513.7c95.4,6.61,172.3,32.08,267.7,38.69,78.3,6.65,172.7-2.32,251.9-7.23,36.1-6.17,139-12.35,136-98.35-5.8-50.44-62.6-91.29-104.4-101.33-74.6-18.68-170.3-7.52-243.9-3.56-64.8,5.37-123.6,9.09-187.5,19.97-49.9,8.52-120.3,14.79-165.1,36.71-79.04,39.18-21.4,109.32,45.3,115.1"/></g></g><path id="path926" fill-rule="nonzero" fill="#e39854" d="m10344,3552.4c78.3,6.65,172.7-2.32,251.9-7.23,13.1-2.26,35.1-4.53,57.7-10.65-162.4-45.61-330.7-16.74-500.1-11.47,63.1,10.23,122.1,24.62,190.5,29.35"/><path id="path928" fill-rule="nonzero" fill="#e39854" d="m10354,3364.1c115.6-0.81,295.4-13.1,272.6-18.58-74.6-18.68-170.3-7.52-243.9-3.56-64.8,5.37-123.6,9.09-187.5,19.97-49.9,8.52-120.3,14.79-165.1,36.71-8.9,4.44-16,9.27-21.7,14.35,111-35.32,228-48.07,345.6-48.89"/><path id="path930" fill-rule="nonzero" fill="#f6c98a" d="m10185,3436.7c-2.4,75.54,69.2,89.76,164.8,91.41,59.3,1,162-11.06,241.1-15.97,21-3.57,81.3,16.19,106.3,16.19,26.7-4.26,47.9-31.35,46.6-67.38-5.7-50.44-74.8-105.41-116.6-115.45-74.6-18.68-162.5,1.98-236.1,5.95-37.1,3.06-203.4-1.67-206.1,85.25"/><g id="g932"><g id="g934" clip-path="url(#clipPath936)"><path id="path946" fill-rule="nonzero" fill="url(#linearGradient940)" d="m10015,3659.6c70.8,61.97,150.2,91,244.7,91.72,102.9-2.04,206.9-5.66,309.1-21.84,44.9-7.12,110.2-4.04,133.6-29.57s25.8-67.72,15.7-126.04c-12-68.96-148.5-45.19-205.4-43.84-94,2.05-141.8,18.8-235.7,14.76-75.3-3.23-271.2-69.4-311.36,11.93-16.41,37.15,25.58,81.29,49.36,102.88"/></g></g><path id="path948" fill-rule="nonzero" fill="#e39854" d="m10162,3739.1c30.6,7.97,62.9,12.02,97.3,12.27,102.9-2.04,206.9-5.66,309.1-21.84,44.9-7.12,110.2-4.04,133.6-29.57,18.2-19.88-349.3,55.28-540,39.14"/><path id="path950" fill-rule="nonzero" fill="#f6c98a" d="m10260,3718.8c101.2,18.92,239.6-0.02,301.1,2.57s117.7,4.13,141.1-21.4,25.8-67.72,15.7-126.04c-12-68.96-148.5-45.19-205.4-43.84-94,2.05-151.5,25.67-250.6,35.33-75.1,7.32-97,135.57-1.9,153.38"/><path id="path966" fill-rule="nonzero" fill="#f24daf" d="m11024,5896.4c27.4-12.34,50.2-40.13,52.8-70.91,29.5,9.25,63.8-1.35,85.6-22.14,22.4-21.39,31.5-53.58,8.4-86.04-29.7-43.64-204.8-59.94-205.7-57.86-2.2,0.02-53.2,168.35-24,212.33,21.3,33.63,54.6,37.31,82.9,24.62"/><path id="path968" fill-rule="nonzero" fill="#f24daf" d="m10689,5048.7c27.5-12.33,50.3-40.12,52.8-70.91,29.5,9.25,63.8-1.34,85.6-22.14,22.4-21.38,31.6-53.58,8.5-86.03-29.7-43.64-204.8-59.94-205.7-57.86-2.3,0.02-53.3,168.35-24,212.32,21.3,33.64,54.5,37.32,82.8,24.62"/><path id="path970" fill-rule="nonzero" fill="#f24daf" d="m12023,7295c35.9-4.4,71.9-28.19,85.7-62.57,30.5,21.05,73.6,21.08,106,4.98,33.3-16.58,55.2-50.24,40.2-95.63-18.6-60.56-213.5-141.35-215.3-139.28-2.6-0.77-120.7,174.13-102.8,234.9,12.5,46.12,49.3,62.12,86.2,57.6"/><path id="path972" fill-rule="nonzero" fill="#f24daf" d="m11931,9351.8c39,19,90.7,18.55,127.1-7.01,17,41.12,60.4,69.33,103.4,74.25,44.4,5.07,88.4-14.5,103-69.97,20.9-73.1-122.6-281.8-125.7-280.85-2.1-2.48-235.3,96.37-257,169.23-17.5,54.61,9.1,94.77,49.2,114.35"/><path id="path974" fill-rule="nonzero" fill="#f24daf" d="m10800,10771c30.5,30.8,79.5,47.5,122.3,35.4,2.5,44.4,34.1,85.3,73.2,104.2,40.2,19.4,88.2,15.4,120.2-32.1,43.9-62.2-22.8-306.5-26-306.6-1.2-3.1-253.9,13.3-298.4,75-34.6,45.7-22.7,92.4,8.7,124.1"/><path id="path976" fill-rule="nonzero" fill="#f24daf" d="m9032.6,11073c20.45,38.3,62.62,68.2,107.09,68.9-10.35,43.2,8.24,91.5,40.25,120.7,32.95,30.2,80.11,40.1,124.44,3.7,59.77-46.9,65.89-300.1,62.83-301.2-0.26-3.2-247.11-59.9-307.4-13.6-46.22,34-48.21,82.1-27.21,121.5"/><path id="path978" fill-rule="nonzero" fill="#f24daf" d="m7142.7,10708c20.44,38.2,62.61,68.2,107.09,68.8-10.36,43.3,8.24,91.6,40.25,120.8,32.95,30.1,80.11,40.1,124.43,3.7,59.78-47,65.9-300.2,62.84-301.2-0.26-3.3-247.11-59.9-307.41-13.6-46.21,34-48.2,82.1-27.2,121.5"/><path id="path986" fill-rule="nonzero" fill="#f24daf" d="m10394,4465.8c-51.2,0-95.7-27.98-119.4-69.4,14.9,59.92,68.8,104.4,133.3,104.4,76,0,137.5-61.56,137.5-137.5,0-24.8-6.6-48.01-18.1-68.1,2.6,10.63,4.2,21.67,4.2,33.1,0,75.94-61.6,137.5-137.5,137.5"/><path id="path988" fill-rule="nonzero" fill="#f24daf" d="m10422,4577.9c-65.2,0-122.1-35.73-152.4-88.63,19,76.52,87.9,133.32,170.3,133.32,97,0,175.6-78.62,175.6-175.58,0-31.68-8.5-61.31-23.2-86.95,3.4,13.56,5.3,27.65,5.3,42.26,0,96.97-78.6,175.58-175.6,175.58"/><path id="path990" fill-rule="nonzero" fill="#f24daf" d="m10467,4719.1c-72.8,0-136.1-39.82-169.8-98.78,21.1,85.28,97.9,148.59,189.7,148.59,108.1,0,195.7-87.62,195.7-195.68,0-35.31-9.5-68.33-25.8-96.91,3.7,15.12,5.9,30.83,5.9,47.1,0,108.06-87.6,195.68-195.7,195.68"/></g></g></svg>
